<svg version="1.1" xmlns="http://www.w3.org/2000/svg" viewBox="0 0 2257.667263264282 750.1586888442739" width="2257.667263264282" height="750.1586888442739">
  <!-- svg-source:excalidraw -->
  
  <defs>
    <style class="style-fonts">
      @font-face {
        font-family: "Virgil";
        src: url("https://excalidraw.com/Virgil.woff2");
      }
      @font-face {
        font-family: "Cascadia";
        src: url("https://excalidraw.com/Cascadia.woff2");
      }
      @font-face {
        font-family: "Assistant";
        src: url("https://excalidraw.com/Assistant-Regular.woff2");
      }
    </style>
    
  </defs>
  <g stroke-linecap="round" transform="translate(794.1188461901588 10) rotate(0 726.7742085370616 365.07934442213696)"><path d="M7.86 8.16 C7.86 8.16, 7.86 8.16, 7.86 8.16 M7.86 8.16 C7.86 8.16, 7.86 8.16, 7.86 8.16 M1.43 27.75 C10.76 18.54, 16.95 9.58, 24.4 1.33 M1.43 27.75 C10.11 19.11, 16.81 9.51, 24.4 1.33 M0.26 41.3 C14.92 25.78, 27.99 12.01, 36.34 -0.21 M0.26 41.3 C10.72 29.48, 21.66 15.97, 36.34 -0.21 M0.39 53.34 C18.19 33.27, 36.21 10.57, 46.97 -0.25 M0.39 53.34 C14.72 37.12, 28.49 21.62, 46.97 -0.25 M0.52 65.38 C20.38 42.57, 38.87 21.1, 57.6 -0.28 M0.52 65.38 C20.05 43.76, 38.27 22.36, 57.6 -0.28 M0 78.17 C12.79 63, 29.66 42.35, 67.57 0.44 M0 78.17 C25.27 50.29, 49.31 21.92, 67.57 0.44 M0.13 90.22 C30.48 58.57, 56.65 22.86, 78.2 0.41 M0.13 90.22 C30.82 55.36, 59.83 20.07, 78.2 0.41 M0.26 102.26 C29.17 71.73, 54.68 41.03, 88.83 0.37 M0.26 102.26 C18.23 79.96, 39.08 57.97, 88.83 0.37 M0.4 114.3 C19.35 90.8, 41.52 62.83, 99.46 0.34 M0.4 114.3 C32.03 76.76, 63.58 39.7, 99.46 0.34 M0.53 126.34 C40.11 82.48, 79.89 35.26, 110.09 0.3 M0.53 126.34 C38.01 81.27, 76.7 38.72, 110.09 0.3 M0.01 139.13 C35.36 98.34, 70.16 57.14, 120.72 0.27 M0.01 139.13 C45.96 88.23, 91.97 34.85, 120.72 0.27 M0.14 151.17 C32.95 109.67, 68.68 73.07, 131.35 0.23 M0.14 151.17 C48.73 95.95, 98.23 39.1, 131.35 0.23 M0.27 163.22 C31.19 125.24, 62.51 87.83, 141.98 0.2 M0.27 163.22 C33.86 126.79, 66.14 88.61, 141.98 0.2 M0.41 175.26 C48.77 123.69, 91.99 70.76, 152.61 0.16 M0.41 175.26 C54.2 115.5, 107.81 52.67, 152.61 0.16 M0.54 187.3 C53.47 126, 110.15 60.83, 163.24 0.13 M0.54 187.3 C59.89 120.27, 118.11 53.02, 163.24 0.13 M0.02 200.09 C56.87 133.22, 118.47 63.94, 173.87 0.09 M0.02 200.09 C45.39 147.11, 91.15 94.51, 173.87 0.09 M0.15 212.13 C62.4 141.18, 122.1 70.31, 184.5 0.06 M0.15 212.13 C63.03 140.52, 124.95 68.3, 184.5 0.06 M0.28 224.17 C55.41 159.31, 111.58 93.99, 195.13 0.03 M0.28 224.17 C62.89 150.59, 125.46 79.13, 195.13 0.03 M0.42 236.22 C46.7 184.2, 91.9 131.43, 205.76 -0.01 M0.42 236.22 C60.61 165.72, 121.02 96.35, 205.76 -0.01 M-0.11 249.01 C79.02 156.07, 159.01 63.86, 216.39 -0.04 M-0.11 249.01 C57.96 183.04, 114.04 117.61, 216.39 -0.04 M0.03 261.05 C49.15 206.58, 97.68 150.6, 227.02 -0.08 M0.03 261.05 C57.34 195.44, 113.36 129.76, 227.02 -0.08 M0.16 273.09 C69.48 194.1, 137.71 115.21, 237.65 -0.11 M0.16 273.09 C62.16 200.11, 124.97 128.5, 237.65 -0.11 M0.29 285.13 C52.79 226.59, 103.27 167.78, 248.28 -0.15 M0.29 285.13 C52 228.27, 102.55 169.84, 248.28 -0.15 M0.43 297.17 C70.18 218.48, 139.83 138.86, 258.91 -0.18 M0.43 297.17 C59.64 228.61, 118.13 161.12, 258.91 -0.18 M-0.1 309.97 C78.37 219.88, 157.83 128.37, 269.54 -0.22 M-0.1 309.97 C62.55 238.31, 125.95 164.49, 269.54 -0.22 M0.04 322.01 C114.07 192.53, 224.64 64.95, 280.17 -0.25 M0.04 322.01 C76.62 234.45, 153.83 146.11, 280.17 -0.25 M0.17 334.05 C78.13 244.48, 156.57 155.09, 290.8 -0.28 M0.17 334.05 C59.2 265.36, 117.47 198.91, 290.8 -0.28 M0.3 346.09 C91.01 242.48, 181.96 137.35, 300.78 0.44 M0.3 346.09 C84.08 252.94, 165.9 159.37, 300.78 0.44 M0.44 358.13 C98.59 247.86, 194.03 135.76, 311.41 0.4 M0.44 358.13 C72.08 273.27, 145.96 188.43, 311.41 0.4 M-0.09 370.93 C79.83 277.37, 160.44 183.81, 322.04 0.37 M-0.09 370.93 C98.98 257.82, 198.22 144.05, 322.04 0.37 M0.05 382.97 C101.55 266.27, 204.45 148.15, 332.67 0.33 M0.05 382.97 C87.93 283.61, 173.77 184.71, 332.67 0.33 M0.18 395.01 C88.06 292.99, 176.19 191.6, 343.3 0.3 M0.18 395.01 C69.38 315.89, 138.15 236.13, 343.3 0.3 M0.31 407.05 C117.71 271.92, 236.53 135.47, 353.93 0.26 M0.31 407.05 C97.14 297.21, 192.02 187.45, 353.93 0.26 M0.45 419.09 C141.36 256.65, 283.85 94.78, 364.56 0.23 M0.45 419.09 C72.57 334.06, 146.56 249.15, 364.56 0.23 M-0.08 431.89 C137.26 275.4, 272.64 120.51, 375.19 0.19 M-0.08 431.89 C89.9 328.06, 179.31 224.61, 375.19 0.19 M0.06 443.93 C94.29 336.37, 189.4 228.06, 385.82 0.16 M0.06 443.93 C113.27 316.4, 224.34 188.11, 385.82 0.16 M0.19 455.97 C140.13 295.03, 280.03 132.83, 396.45 0.12 M0.19 455.97 C91.43 354.06, 180.45 250.93, 396.45 0.12 M0.32 468.01 C114.48 335.46, 230.05 203.09, 407.08 0.09 M0.32 468.01 C109.58 342.5, 218.85 216.83, 407.08 0.09 M0.46 480.05 C157.68 298.12, 315.4 116.86, 417.71 0.06 M0.46 480.05 C112.6 353.32, 224.06 225.27, 417.71 0.06 M-0.07 492.85 C126.8 345.61, 254.86 198.34, 428.34 0.02 M-0.07 492.85 C119.24 353.02, 240.02 214.42, 428.34 0.02 M0.07 504.89 C127.56 358.51, 254.43 212.36, 438.97 -0.01 M0.07 504.89 C123.17 364.97, 243.74 225.71, 438.97 -0.01 M0.2 516.93 C150.8 346.29, 301.79 173.54, 449.6 -0.05 M0.2 516.93 C131.67 364.56, 264.54 212.25, 449.6 -0.05 M0.33 528.97 C107.79 402.72, 216.67 277.83, 460.23 -0.08 M0.33 528.97 C161.93 343.9, 322.46 158.48, 460.23 -0.08 M0.47 541.01 C178.92 337.15, 357.33 133.02, 470.86 -0.12 M0.47 541.01 C98.14 428.43, 194.73 316.39, 470.86 -0.12 M-0.06 553.81 C181.58 346.52, 362.03 139.28, 481.49 -0.15 M-0.06 553.81 C125.09 408.94, 251.08 263.54, 481.49 -0.15 M0.08 565.85 C128.09 416.82, 257.44 268.28, 492.12 -0.19 M0.08 565.85 C168.04 372.88, 336.56 179.38, 492.12 -0.19 M0.21 577.89 C171.84 377.81, 347.03 177.48, 502.75 -0.22 M0.21 577.89 C185.81 364.91, 371 152.39, 502.75 -0.22 M0.34 589.93 C190.57 373.7, 380.39 155.42, 513.38 -0.25 M0.34 589.93 C185.98 377.37, 369.62 165.43, 513.38 -0.25 M0.48 601.97 C201.9 371.45, 404.56 138.63, 523.35 0.47 M0.48 601.97 C159.35 419.84, 317.18 238.9, 523.35 0.47 M-0.05 614.76 C169.66 419.15, 340.58 222.42, 533.98 0.43 M-0.05 614.76 C184.64 404.6, 369.58 192.56, 533.98 0.43 M0.09 626.81 C124.28 483.85, 251.18 339.03, 544.61 0.4 M0.09 626.81 C153.47 451.41, 303.95 278.38, 544.61 0.4 M0.22 638.85 C154.93 456.37, 311.57 275.57, 555.24 0.36 M0.22 638.85 C172.81 435.8, 348.09 235, 555.24 0.36 M0.35 650.89 C120.63 514.23, 237.77 377.48, 565.87 0.33 M0.35 650.89 C220.03 400.8, 439.86 148.75, 565.87 0.33 M0.49 662.93 C158.79 481.58, 316.86 299.92, 576.5 0.29 M0.49 662.93 C182.54 452.36, 364.77 242.11, 576.5 0.29 M-0.04 675.72 C205.23 440.97, 408.08 207.09, 587.14 0.26 M-0.04 675.72 C181.79 471.21, 361.72 263.6, 587.14 0.26 M0.1 687.76 C154.65 514.93, 306.84 340, 597.77 0.22 M0.1 687.76 C193.75 462.81, 388.19 239.77, 597.77 0.22 M0.23 699.81 C161.58 515.7, 321.1 332.18, 608.4 0.19 M0.23 699.81 C235.9 429.48, 470.87 158.56, 608.4 0.19 M1.67 710.34 C145.3 547.24, 285.59 386.42, 619.03 0.16 M1.67 710.34 C215.59 465.34, 428.77 220.63, 619.03 0.16 M5.09 718.6 C175.75 523.25, 346.67 327.56, 629.66 0.12 M5.09 718.6 C228.92 457.59, 454.8 197.2, 629.66 0.12 M11.12 723.85 C229.1 476.45, 446.17 226.46, 640.29 0.09 M11.12 723.85 C205.01 499.26, 400.76 274.82, 640.29 0.09 M18.47 727.59 C197.9 519.66, 379.1 309.62, 650.92 0.05 M18.47 727.59 C169.98 550.43, 324.82 373.67, 650.92 0.05 M27.14 729.82 C152.59 584.47, 280.48 437.68, 661.55 0.02 M27.14 729.82 C272.99 448.98, 519.32 165.56, 661.55 0.02 M37.11 730.54 C234.03 499.9, 433.36 271.41, 672.18 -0.02 M37.11 730.54 C180.09 564.88, 322.37 401.25, 672.18 -0.02 M47.74 730.51 C263.09 483.42, 476.85 236.24, 682.81 -0.05 M47.74 730.51 C218.99 534.59, 391.41 336.15, 682.81 -0.05 M58.37 730.47 C278.5 475.48, 500.47 220.86, 693.44 -0.09 M58.37 730.47 C298.6 457.45, 536.41 183.91, 693.44 -0.09 M69 730.44 C285.76 477.85, 503.69 228.8, 704.07 -0.12 M69 730.44 C248.75 523.18, 429.7 314.98, 704.07 -0.12 M79.63 730.4 C264.33 516.19, 452.16 300.1, 714.7 -0.16 M79.63 730.4 C298.35 478.34, 519.38 224.76, 714.7 -0.16 M90.26 730.37 C307.95 476.52, 527.19 224.38, 725.33 -0.19 M90.26 730.37 C269.54 522.41, 448.69 315.76, 725.33 -0.19 M100.89 730.33 C257.17 554.46, 411.69 378.08, 735.96 -0.22 M100.89 730.33 C273.61 533.39, 447.37 333.85, 735.96 -0.22 M111.52 730.3 C319.04 493.59, 525.59 256.55, 746.59 -0.26 M111.52 730.3 C331.94 479.54, 551.62 226.09, 746.59 -0.26 M122.15 730.27 C361.96 453.54, 600.7 178.41, 756.56 0.46 M122.15 730.27 C288.9 540.62, 455.03 349.48, 756.56 0.46 M132.78 730.23 C260.06 581.27, 387.94 435.05, 767.19 0.43 M132.78 730.23 C316.69 514.77, 501.4 302, 767.19 0.43 M143.41 730.2 C319.88 526.87, 497.44 321.74, 777.82 0.39 M143.41 730.2 C339.36 507.93, 533.92 284.93, 777.82 0.39 M154.04 730.16 C374 479.13, 593.56 227.7, 788.45 0.36 M154.04 730.16 C383.2 468.61, 612.03 206.32, 788.45 0.36 M164.67 730.13 C312.54 560.8, 461.67 391.1, 799.08 0.32 M164.67 730.13 C404.18 458.95, 642.07 185.59, 799.08 0.32 M175.3 730.09 C345.95 534.2, 514.98 340.23, 809.71 0.29 M175.3 730.09 C381.3 493.44, 587.06 257.2, 809.71 0.29 M185.93 730.06 C377.82 505.06, 573.7 280.07, 820.34 0.25 M185.93 730.06 C387.1 499.13, 588.11 268.11, 820.34 0.25 M196.56 730.02 C403.06 491, 610.11 253.53, 830.97 0.22 M196.56 730.02 C443.97 448.15, 688.2 167.27, 830.97 0.22 M207.19 729.99 C381.83 534.02, 554.02 335.27, 841.6 0.19 M207.19 729.99 C439.42 463.87, 670.53 198.16, 841.6 0.19 M217.82 729.96 C362.75 561.48, 507.41 396.52, 852.23 0.15 M217.82 729.96 C394.54 528.87, 570.51 326.62, 852.23 0.15 M228.45 729.92 C410.98 522.08, 594.56 311.21, 862.86 0.12 M228.45 729.92 C367.94 568.41, 509.81 405.17, 862.86 0.12 M239.08 729.89 C441.53 498.11, 642.59 265.65, 873.49 0.08 M239.08 729.89 C468.54 465.56, 697.37 202.25, 873.49 0.08 M249.06 730.61 C387.36 568.87, 525.43 409.48, 884.12 0.05 M249.06 730.61 C492.87 448.02, 737.73 166.32, 884.12 0.05 M259.69 730.57 C445.17 517.85, 630.66 303.88, 894.75 0.01 M259.69 730.57 C469.55 493.77, 676.55 255.07, 894.75 0.01 M270.32 730.54 C467.72 502.67, 668.56 271.79, 905.38 -0.02 M270.32 730.54 C412.22 568.6, 551.26 409, 905.38 -0.02 M280.95 730.5 C467.89 519.04, 652.66 305.98, 916.01 -0.06 M280.95 730.5 C468.67 516.44, 656.68 299.95, 916.01 -0.06 M291.58 730.47 C498.88 492.29, 706.88 251.23, 926.64 -0.09 M291.58 730.47 C464.71 534.03, 636.63 335.78, 926.64 -0.09 M302.21 730.43 C557.04 439.67, 810.68 148.35, 937.27 -0.12 M302.21 730.43 C504.8 494.94, 708.51 260.92, 937.27 -0.12 M312.84 730.4 C443.42 582.28, 574.49 433.78, 947.9 -0.16 M312.84 730.4 C548.76 458.71, 783.56 187.91, 947.9 -0.16 M323.47 730.36 C543.97 475.73, 764.15 222.77, 958.53 -0.19 M323.47 730.36 C501.12 528.33, 678.47 324.57, 958.53 -0.19 M334.1 730.33 C575.62 449.09, 819.35 170.25, 969.16 -0.23 M334.1 730.33 C541.45 494.16, 747.34 257.23, 969.16 -0.23 M344.73 730.3 C475.92 580.92, 608.11 430.83, 979.79 -0.26 M344.73 730.3 C587.12 450.05, 830.06 169.6, 979.79 -0.26 M355.36 730.26 C543.47 514.08, 733.32 296.56, 989.77 0.46 M355.36 730.26 C497.25 567.52, 637.13 406.43, 989.77 0.46 M365.99 730.23 C557.05 507.45, 748.9 286.87, 1000.4 0.42 M365.99 730.23 C538.66 531.9, 710.61 333.33, 1000.4 0.42 M376.62 730.19 C556.5 520.73, 736.14 314.02, 1011.03 0.39 M376.62 730.19 C583.33 494.14, 789.83 256.5, 1011.03 0.39 M387.25 730.16 C578.8 510.32, 768.56 291.59, 1021.66 0.35 M387.25 730.16 C586.62 504.06, 785.34 274.81, 1021.66 0.35 M397.88 730.12 C562.67 536.15, 730.38 343.47, 1032.29 0.32 M397.88 730.12 C641.09 447.68, 887.32 164.99, 1032.29 0.32 M408.51 730.09 C602.88 505.98, 798.78 278.94, 1042.92 0.28 M408.51 730.09 C602.93 506.52, 798.53 281.06, 1042.92 0.28 M419.14 730.05 C585.29 538.23, 750.31 347.9, 1053.55 0.25 M419.14 730.05 C629.39 487.1, 839.72 245.16, 1053.55 0.25 M429.77 730.02 C677.96 446.96, 925.71 163.08, 1064.18 0.22 M429.77 730.02 C671.7 448.36, 916.61 167.47, 1064.18 0.22 M440.4 729.99 C624.29 515.27, 809.03 303.73, 1074.81 0.18 M440.4 729.99 C673.55 466.29, 904.06 201.28, 1074.81 0.18 M451.03 729.95 C603.07 554.2, 756.39 377.07, 1085.44 0.15 M451.03 729.95 C645.83 508.98, 838.1 287.85, 1085.44 0.15 M461.66 729.92 C632.08 537.42, 801.27 342.05, 1096.07 0.11 M461.66 729.92 C634.7 534.48, 806.32 337.51, 1096.07 0.11 M472.29 729.88 C671.07 499.74, 869.72 273.48, 1106.7 0.08 M472.29 729.88 C692.06 473.61, 913.57 219.43, 1106.7 0.08 M482.26 730.6 C670.46 511.76, 858.91 295.68, 1117.33 0.04 M482.26 730.6 C683.59 497.31, 884.83 265.91, 1117.33 0.04 M492.89 730.57 C678.33 516.2, 863.57 301.26, 1127.96 0.01 M492.89 730.57 C643.48 554.49, 796.51 378.71, 1127.96 0.01 M503.52 730.53 C744.54 452.33, 988.95 173.03, 1138.59 -0.03 M503.52 730.53 C723.87 476.14, 944.97 221.08, 1138.59 -0.03 M514.15 730.5 C655.24 562.42, 798.22 398.29, 1149.22 -0.06 M514.15 730.5 C655.17 565.28, 799.35 400.19, 1149.22 -0.06 M524.78 730.46 C733.04 496.3, 938.16 259, 1159.85 -0.09 M524.78 730.46 C706.64 516.41, 892.03 303.95, 1159.85 -0.09 M535.41 730.43 C782.69 444.35, 1031.74 159.54, 1170.48 -0.13 M535.41 730.43 C776.49 448.28, 1019.55 168.39, 1170.48 -0.13 M546.04 730.4 C678.57 577.04, 814.54 420.31, 1181.11 -0.16 M546.04 730.4 C704.01 551.61, 860.48 371.05, 1181.11 -0.16 M556.67 730.36 C694.25 572.9, 833.88 412.42, 1191.74 -0.2 M556.67 730.36 C759.73 495.39, 961.6 263.9, 1191.74 -0.2 M567.3 730.33 C781.04 485.47, 995.03 236.59, 1202.37 -0.23 M567.3 730.33 C695.93 584.55, 824.8 437.08, 1202.37 -0.23 M577.93 730.29 C821.55 452.38, 1063.7 173.94, 1213 -0.27 M577.93 730.29 C750.68 536.18, 919.99 341.18, 1213 -0.27 M588.56 730.26 C766.89 523.18, 946.99 314.34, 1222.97 0.45 M588.56 730.26 C794.37 497.48, 997.19 263.82, 1222.97 0.45 M599.19 730.22 C789.93 513.65, 978.97 297.72, 1233.6 0.42 M599.19 730.22 C851.42 440.76, 1103.54 151.08, 1233.6 0.42 M609.82 730.19 C755.32 559.88, 901.63 390.6, 1244.23 0.38 M609.82 730.19 C762.36 551.33, 917.36 373.6, 1244.23 0.38 M620.45 730.15 C767.83 556.93, 916.82 386.47, 1254.86 0.35 M620.45 730.15 C814.59 510.28, 1006.95 288.93, 1254.86 0.35 M631.08 730.12 C791.79 544.87, 952.8 360.45, 1265.49 0.32 M631.08 730.12 C883.77 440.39, 1136.75 149.74, 1265.49 0.32 M641.71 730.08 C766.84 582.77, 893.88 436.06, 1276.12 0.28 M641.71 730.08 C842.39 503.58, 1040.67 274.43, 1276.12 0.28 M652.34 730.05 C794.54 570.15, 934.73 408.79, 1286.75 0.25 M652.34 730.05 C831.09 520.39, 1011.48 312.7, 1286.75 0.25 M662.97 730.02 C821.48 547.87, 980.73 364.79, 1297.38 0.21 M662.97 730.02 C902.51 451.52, 1144.1 173.56, 1297.38 0.21 M673.6 729.98 C862.54 512.9, 1050.14 296.2, 1308.01 0.18 M673.6 729.98 C916.69 447.68, 1162.07 164.78, 1308.01 0.18 M684.23 729.95 C928.16 446.52, 1173.95 163.25, 1318.64 0.14 M684.23 729.95 C932.47 443.61, 1180.06 158.43, 1318.64 0.14 M694.86 729.91 C853.19 549.38, 1010.22 369.28, 1329.27 0.11 M694.86 729.91 C864.75 534.32, 1034.42 339.83, 1329.27 0.11 M705.49 729.88 C868.66 541.97, 1029.25 357.42, 1339.9 0.07 M705.49 729.88 C867.4 543.76, 1031.62 354.92, 1339.9 0.07 M715.47 730.6 C917.3 495.57, 1121.61 261.82, 1350.53 0.04 M715.47 730.6 C885.99 536.84, 1054.75 343.17, 1350.53 0.04 M726.1 730.56 C881.47 550.18, 1037.24 371.9, 1361.16 0 M726.1 730.56 C871.36 562.89, 1016.65 396.11, 1361.16 0 M736.73 730.53 C978.19 452.96, 1216.15 179.14, 1371.79 -0.03 M736.73 730.53 C865.76 579.83, 997.09 428.7, 1371.79 -0.03 M747.36 730.49 C996.82 442.21, 1245.68 156.47, 1382.42 -0.06 M747.36 730.49 C983.9 456.62, 1221.58 183.89, 1382.42 -0.06 M757.99 730.46 C981.31 471.06, 1205.97 212.04, 1393.05 -0.1 M757.99 730.46 C939.75 520.34, 1124.75 307.56, 1393.05 -0.1 M768.62 730.43 C946.4 526.11, 1123.88 321.21, 1403.68 -0.13 M768.62 730.43 C956.44 512.14, 1146.18 293.45, 1403.68 -0.13 M779.25 730.39 C908.21 585.94, 1034.95 439.5, 1414.31 -0.17 M779.25 730.39 C1034.75 437.77, 1288.38 145.98, 1414.31 -0.17 M789.88 730.36 C1002 486.68, 1214.84 243.43, 1424.29 0.55 M789.88 730.36 C939.24 558.22, 1090.07 384.47, 1424.29 0.55 M800.51 730.32 C1018.97 476.24, 1241.4 219.99, 1433.61 2.03 M800.51 730.32 C1049.59 444.72, 1297.58 159.37, 1433.61 2.03 M811.14 730.29 C1019.78 492.33, 1228.35 253.09, 1441.61 5.01 M811.14 730.29 C1033.88 471.72, 1255.93 216.66, 1441.61 5.01 M821.77 730.25 C967.21 561.57, 1116.74 390.85, 1446.99 11.01 M821.77 730.25 C952.23 578.19, 1083.29 427.51, 1446.99 11.01 M832.4 730.22 C1006.54 530.04, 1181.33 329.92, 1451.72 17.77 M832.4 730.22 C978.64 559.36, 1124.96 390.35, 1451.72 17.77 M843.03 730.18 C1078.48 458.15, 1316.07 185.51, 1453.82 27.55 M843.03 730.18 C1069.09 466.11, 1298.23 202.5, 1453.82 27.55 M853.66 730.15 C1066.18 486.72, 1279.29 242.29, 1453.95 39.59 M853.66 730.15 C982.12 583.75, 1110.29 436.3, 1453.95 39.59 M864.29 730.12 C1055.6 508.4, 1248.97 285.39, 1454.09 51.63 M864.29 730.12 C1032.15 538.4, 1199.19 345.58, 1454.09 51.63 M874.92 730.08 C1081.87 492.03, 1287.4 253.48, 1453.56 64.43 M874.92 730.08 C1010.31 572.38, 1145.9 416.41, 1453.56 64.43 M885.55 730.05 C1038.28 550.27, 1192.21 373.39, 1453.7 76.47 M885.55 730.05 C1067.43 521.97, 1248.41 313.32, 1453.7 76.47 M896.18 730.01 C1030.88 575.44, 1164.86 420.18, 1453.83 88.51 M896.18 730.01 C1107.4 487.41, 1319.86 242.56, 1453.83 88.51 M906.81 729.98 C1037.68 579.62, 1167.73 429.94, 1453.96 100.55 M906.81 729.98 C1091.44 517.15, 1275.93 304.57, 1453.96 100.55 M917.44 729.94 C1028.77 602.37, 1138.87 475.55, 1453.44 113.34 M917.44 729.94 C1112.45 506.4, 1307.35 281.65, 1453.44 113.34 M928.07 729.91 C1099.54 532.43, 1274.21 331, 1453.57 125.39 M928.07 729.91 C1128.17 499.23, 1327.16 270.22, 1453.57 125.39 M938.7 729.87 C1144 494.02, 1348.73 259.24, 1453.71 137.43 M938.7 729.87 C1056.12 594.12, 1173.37 459.42, 1453.71 137.43 M948.67 730.59 C1079.77 580.4, 1211.6 430.71, 1453.84 149.47 M948.67 730.59 C1132.15 518.83, 1315.72 306.63, 1453.84 149.47 M959.3 730.56 C1060.15 614.56, 1160.85 499.74, 1453.97 161.51 M959.3 730.56 C1078.43 595.44, 1197.36 458.63, 1453.97 161.51 M969.93 730.52 C1076.46 608.32, 1182.42 486.74, 1453.45 174.3 M969.93 730.52 C1155.62 514.87, 1343.23 298.31, 1453.45 174.3 M980.56 730.49 C1149.01 534.45, 1320.71 337.69, 1453.58 186.34 M980.56 730.49 C1075.22 620.51, 1172 509.2, 1453.58 186.34 M991.19 730.46 C1088.08 618.88, 1186.09 507.52, 1453.72 198.39 M991.19 730.46 C1098.15 606.45, 1205.32 483.39, 1453.72 198.39 M1001.82 730.42 C1113.76 601.97, 1225.91 473.63, 1453.85 210.43 M1001.82 730.42 C1157.93 551.36, 1314.88 370.17, 1453.85 210.43 M1012.45 730.39 C1151.36 570.89, 1291.3 410.66, 1453.98 222.47 M1012.45 730.39 C1123.68 602.85, 1233.8 476.38, 1453.98 222.47 M1023.08 730.35 C1192.06 536.81, 1360.24 344.25, 1453.46 235.26 M1023.08 730.35 C1123.4 614.73, 1223.74 499.41, 1453.46 235.26 M1033.71 730.32 C1130.16 618.19, 1227.76 508.11, 1453.59 247.3 M1033.71 730.32 C1150.58 595.52, 1269.12 459.59, 1453.59 247.3 M1044.34 730.28 C1189.46 562.62, 1336.34 393.04, 1453.73 259.34 M1044.34 730.28 C1147.78 614.5, 1249.16 497.58, 1453.73 259.34 M1054.97 730.25 C1184.16 581.13, 1314.75 432.34, 1453.86 271.39 M1054.97 730.25 C1190 573.19, 1327.07 415.49, 1453.86 271.39 M1065.61 730.21 C1170.3 610.04, 1275.02 490.25, 1453.99 283.43 M1065.61 730.21 C1186.64 588.27, 1308.81 447.9, 1453.99 283.43 M1076.24 730.18 C1221.26 562.21, 1366.72 395.11, 1453.47 296.22 M1076.24 730.18 C1201.76 586.95, 1326.71 443.13, 1453.47 296.22 M1086.87 730.15 C1191.07 608.47, 1296.55 488.57, 1453.6 308.26 M1086.87 730.15 C1225.77 570.54, 1364 410.44, 1453.6 308.26 M1097.5 730.11 C1195.56 615.94, 1293.79 501.06, 1453.74 320.3 M1097.5 730.11 C1212.09 596.13, 1328.51 462.85, 1453.74 320.3 M1108.13 730.08 C1216.22 605.43, 1325.1 479.69, 1453.87 332.34 M1108.13 730.08 C1218.75 601.86, 1329.95 473.67, 1453.87 332.34 M1118.76 730.04 C1211.42 626.22, 1300.9 521.41, 1454 344.39 M1118.76 730.04 C1213.05 622.08, 1306.29 515.08, 1454 344.39 M1129.39 730.01 C1228.49 616.53, 1327.01 504.25, 1453.48 357.18 M1129.39 730.01 C1209.32 635.63, 1290.19 541.76, 1453.48 357.18 M1140.02 729.97 C1241.08 612.56, 1343.19 495.25, 1453.61 369.22 M1140.02 729.97 C1241.05 611.14, 1343.02 493.81, 1453.61 369.22 M1150.65 729.94 C1258.51 606.98, 1367.63 482.89, 1453.75 381.26 M1150.65 729.94 C1212.5 657.8, 1274.38 586.68, 1453.75 381.26 M1161.28 729.9 C1278.92 596.01, 1395.78 461.8, 1453.88 393.3 M1161.28 729.9 C1245.77 634.4, 1329.32 538.26, 1453.88 393.3 M1171.91 729.87 C1231.32 660.81, 1291.21 593, 1454.01 405.34 M1171.91 729.87 C1242.68 647.76, 1312.58 567.21, 1454.01 405.34 M1181.88 730.59 C1276.14 621.58, 1370.69 512.63, 1453.49 418.14 M1181.88 730.59 C1278.99 620.13, 1373.96 511.22, 1453.49 418.14 M1192.51 730.56 C1282.77 625.1, 1376.99 519.04, 1453.62 430.18 M1192.51 730.56 C1293.17 614.53, 1393.33 499.1, 1453.62 430.18 M1203.14 730.52 C1258.02 667.52, 1312.33 605.59, 1453.75 442.22 M1203.14 730.52 C1301.79 616.63, 1401.11 502.8, 1453.75 442.22 M1213.77 730.49 C1289.2 640.61, 1366.68 550.9, 1453.89 454.26 M1213.77 730.49 C1272.03 665.2, 1329.18 599.51, 1453.89 454.26 M1224.4 730.45 C1305.46 639.25, 1384.75 547.59, 1454.02 466.3 M1224.4 730.45 C1288.18 657.13, 1351.31 584.66, 1454.02 466.3 M1235.03 730.42 C1321.55 631, 1406.11 530.49, 1453.5 479.1 M1235.03 730.42 C1313.76 638.95, 1393.35 546.85, 1453.5 479.1 M1245.66 730.38 C1304.96 663.78, 1361.19 594.96, 1453.63 491.14 M1245.66 730.38 C1314.35 652.28, 1382.74 573.66, 1453.63 491.14 M1256.29 730.35 C1314.61 664.15, 1371.49 595.92, 1453.76 503.18 M1256.29 730.35 C1325.84 651.79, 1394.58 570.84, 1453.76 503.18 M1266.92 730.31 C1316.16 676.17, 1364.65 618.87, 1453.9 515.22 M1266.92 730.31 C1317.31 673.96, 1366.44 617.54, 1453.9 515.22 M1277.55 730.28 C1330.71 671.27, 1380.4 611.34, 1454.03 527.26 M1277.55 730.28 C1333.11 663.87, 1389.53 600.26, 1454.03 527.26 M1288.18 730.24 C1334.64 675.73, 1385.97 617.18, 1453.51 540.06 M1288.18 730.24 C1333.87 676.37, 1380.02 624.2, 1453.51 540.06 M1298.81 730.21 C1346.43 677.63, 1393.58 623.47, 1453.64 552.1 M1298.81 730.21 C1331.37 693.09, 1363.26 655.99, 1453.64 552.1 M1309.44 730.18 C1356.7 677.82, 1405.55 622.65, 1453.77 564.14 M1309.44 730.18 C1358.19 672.64, 1407.52 616.87, 1453.77 564.14 M1320.07 730.14 C1369.44 671.32, 1421.23 612.89, 1453.91 576.18 M1320.07 730.14 C1358.17 686.05, 1397.42 642.5, 1453.91 576.18 M1330.7 730.11 C1365.37 690.6, 1400.25 653.97, 1454.04 588.22 M1330.7 730.11 C1368.17 686.91, 1406.42 641.6, 1454.04 588.22 M1341.33 730.07 C1365.94 700.03, 1393.57 671.97, 1453.52 601.02 M1341.33 730.07 C1370.9 694.34, 1403.46 657.72, 1453.52 601.02 M1351.96 730.04 C1387.79 688.98, 1421.52 648.56, 1453.65 613.06 M1351.96 730.04 C1373.15 705.86, 1394.18 681.69, 1453.65 613.06 M1362.59 730 C1391.2 698.32, 1420.85 666.77, 1453.78 625.1 M1362.59 730 C1381.52 707.86, 1400.54 686.68, 1453.78 625.1 M1373.22 729.97 C1402.23 699.88, 1426.99 664.82, 1453.92 637.14 M1373.22 729.97 C1403.89 696.28, 1433.52 662.04, 1453.92 637.14 M1383.85 729.93 C1406.23 703.5, 1428.95 678.52, 1454.05 649.18 M1383.85 729.93 C1407.71 701.41, 1431.7 674.02, 1454.05 649.18 M1394.48 729.9 C1419.91 702.79, 1440.78 675.08, 1453.53 661.98 M1394.48 729.9 C1410.36 711.65, 1425.86 694.05, 1453.53 661.98 M1405.11 729.87 C1419.07 713.24, 1434.24 698.78, 1453.66 674.02 M1405.11 729.87 C1419.52 713.59, 1432.62 700.05, 1453.66 674.02 M1415.09 730.59 C1431.66 712.2, 1444.02 695.68, 1453.79 686.06 M1415.09 730.59 C1425.49 719.04, 1436.69 707.87, 1453.79 686.06 M1426.37 729.8 C1432.65 719.83, 1443.31 710.67, 1453.93 698.1 M1426.37 729.8 C1432.04 721.76, 1437.88 716.08, 1453.93 698.1 M1440.28 725.99 C1444.96 722.94, 1446.1 719.24, 1450.78 713.91 M1440.28 725.99 C1443.3 721.36, 1447.76 718.27, 1450.78 713.91" stroke="#ffd8a8" stroke-width="1" fill="none"></path><path d="M32 0 C547.85 3.43, 1063.65 4.04, 1421.55 0 M32 0 C402.56 5.78, 772.64 5.69, 1421.55 0 M1421.55 0 C1443.47 1.78, 1452.73 9.64, 1453.55 32 M1421.55 0 C1443.07 1.88, 1455.2 10.16, 1453.55 32 M1453.55 32 C1456.17 165.96, 1455.26 299.21, 1453.55 698.16 M1453.55 32 C1454.75 193.39, 1455.4 354.62, 1453.55 698.16 M1453.55 698.16 C1453.83 718.17, 1442.08 729.22, 1421.55 730.16 M1453.55 698.16 C1453.49 721.61, 1441.96 731.08, 1421.55 730.16 M1421.55 730.16 C888.52 726.55, 355.12 727.77, 32 730.16 M1421.55 730.16 C899.1 725.72, 376 725.57, 32 730.16 M32 730.16 C11.65 731.7, -0.24 720.91, 0 698.16 M32 730.16 C12.93 727.9, 1.6 719.31, 0 698.16 M0 698.16 C-0.93 471.8, -0.62 246.85, 0 32 M0 698.16 C-0.83 562.83, -1.24 426.71, 0 32 M0 32 C-1.21 9.67, 8.75 0.08, 32 0 M0 32 C0.03 12.04, 10.47 -2.08, 32 0" stroke="#1e1e1e" stroke-width="2" fill="none"></path></g><g stroke-opacity="0" fill-opacity="0" stroke-linecap="round" transform="translate(26.063652801396756 102.22918607309884) rotate(0 79.47004622860163 79.47004622860163)"><path d="M90.94 0.35 C101.12 0.47, 111.1 5.7, 120.29 11.47 C129.47 17.24, 139.96 25.93, 146.05 34.96 C152.14 43.98, 155.01 55.05, 156.82 65.62 C158.63 76.19, 159.2 88.11, 156.91 98.38 C154.62 108.66, 149.57 118.75, 143.08 127.27 C136.59 135.78, 127.48 144.29, 117.98 149.47 C108.48 154.66, 97.02 157.75, 86.08 158.39 C75.14 159.02, 62.75 156.73, 52.34 153.28 C41.94 149.84, 31.5 144.85, 23.67 137.72 C15.83 130.59, 9.19 120.57, 5.33 110.48 C1.48 100.39, 0.22 88.17, 0.55 77.16 C0.89 66.16, 2.64 54.1, 7.33 44.44 C12.02 34.78, 20.53 26.16, 28.69 19.2 C36.85 12.24, 45.52 5.47, 56.31 2.66 C67.1 -0.15, 86.5 2.23, 93.44 2.34 C100.39 2.45, 98.09 2.07, 97.99 3.34 M52.26 5.81 C61.69 0.81, 74.17 -0.34, 84.74 0.15 C95.32 0.64, 106.29 4.09, 115.7 8.75 C125.12 13.41, 134.54 19.83, 141.21 28.12 C147.88 36.4, 153.01 47.66, 155.73 58.45 C158.45 69.24, 159.1 82.04, 157.53 92.84 C155.95 103.65, 152.25 114.55, 146.29 123.28 C140.33 132.02, 130.72 139.51, 121.77 145.26 C112.83 151, 103.04 156.03, 92.64 157.77 C82.23 159.5, 70.05 158.44, 59.35 155.65 C48.64 152.86, 36.63 147.82, 28.41 141.04 C20.2 134.25, 14.88 124.29, 10.05 114.91 C5.21 105.54, 0.31 95.19, -0.59 84.79 C-1.5 74.39, 0.75 62.57, 4.63 52.52 C8.52 42.47, 15.1 32.37, 22.72 24.48 C30.33 16.6, 45.37 8.4, 50.3 5.2 C55.24 2.01, 51.7 4.13, 52.31 5.32" stroke="#1e1e1e" stroke-width="1" fill="none"></path></g><g stroke-linecap="round" transform="translate(66.58306888626544 125.77058641589656) rotate(0 39.57328675349072 26.382191168993813)"><path d="M13.19 0 C26.78 -0.31, 42.83 -0.89, 65.96 0 M13.19 0 C23.98 -1.32, 34.63 -0.23, 65.96 0 M65.96 0 C74.81 1.54, 77.44 6.18, 79.15 13.19 M65.96 0 C74.76 1.65, 78.38 3.76, 79.15 13.19 M79.15 13.19 C77.75 20.34, 79.96 24.05, 79.15 39.57 M79.15 13.19 C79.39 18.72, 78.5 25.44, 79.15 39.57 M79.15 39.57 C81.12 49.17, 73.97 53.21, 65.96 52.76 M79.15 39.57 C80.85 46.68, 73.62 54.61, 65.96 52.76 M65.96 52.76 C45.48 53.48, 25.04 53.22, 13.19 52.76 M65.96 52.76 C54.33 53.31, 43.39 53.03, 13.19 52.76 M13.19 52.76 C3.01 51.67, 0.88 48.12, 0 39.57 M13.19 52.76 C4.96 51.84, -1.7 47.99, 0 39.57 M0 39.57 C1.56 28.46, 2.06 18.33, 0 13.19 M0 39.57 C0.65 28.65, 0.25 19.42, 0 13.19 M0 13.19 C1.02 5.01, 3.24 -0.07, 13.19 0 M0 13.19 C0.79 5.01, 3.4 -1.04, 13.19 0" stroke="#1e1e1e" stroke-width="1" fill="none"></path></g><g stroke-linecap="round" transform="translate(59.034318382782885 184.40792739406925) rotate(0 46.49938064721539 6.364934233078884)"><path d="M3.18 0 C32.27 -0.34, 58.85 -0.38, 89.82 0 M3.18 0 C37.06 0.49, 70.65 0.75, 89.82 0 M89.82 0 C91.09 0.89, 93 1.78, 93 3.18 M89.82 0 C91.55 -0.32, 91.87 0.08, 93 3.18 M93 3.18 C93.14 5.66, 92.8 7.91, 93 9.55 M93 3.18 C92.93 5.35, 93.17 7.79, 93 9.55 M93 9.55 C92.61 11.89, 92.68 11.99, 89.82 12.73 M93 9.55 C92.44 12.59, 92.96 13.12, 89.82 12.73 M89.82 12.73 C57.03 12.82, 23.23 12.47, 3.18 12.73 M89.82 12.73 C66.04 13.22, 41.83 12.75, 3.18 12.73 M3.18 12.73 C1.5 12.61, 0.25 11.27, 0 9.55 M3.18 12.73 C0.21 12.54, 1.03 11.13, 0 9.55 M0 9.55 C0.29 7.83, 0.22 6.2, 0 3.18 M0 9.55 C0 7.64, 0.06 5.87, 0 3.18 M0 3.18 C-0.58 1.02, 1.4 0.27, 3.18 0 M0 3.18 C-0.5 0.54, 1.38 0.37, 3.18 0" stroke="#1e1e1e" stroke-width="1" fill="none"></path></g><g stroke-linecap="round" transform="translate(127.59930241001098 189.06956936759207) rotate(0 8.332186988999297 1.6061747184414799)"><path d="M0.8 0 C4.44 -0.29, 10.25 0.19, 15.86 0 M0.8 0 C4.05 0.27, 6.96 0.32, 15.86 0 M15.86 0 C16.4 0.72, 16.33 -0.01, 16.66 0.8 M15.86 0 C15.27 -0.98, 17.63 -0.41, 16.66 0.8 M16.66 0.8 C16.62 1.39, 16.71 2.09, 16.66 2.41 M16.66 0.8 C16.7 1.15, 16.64 1.48, 16.66 2.41 M16.66 2.41 C17.4 2.21, 15.91 4.01, 15.86 3.21 M16.66 2.41 C17.69 3.33, 17.31 3.25, 15.86 3.21 M15.86 3.21 C10.47 2.97, 6.18 2.99, 0.8 3.21 M15.86 3.21 C10.06 3.04, 4.95 3.2, 0.8 3.21 M0.8 3.21 C0.51 2.81, -0.74 2.78, 0 2.41 M0.8 3.21 C1.3 2.67, -0.54 3.77, 0 2.41 M0 2.41 C0.05 1.96, -0.01 1.62, 0 0.8 M0 2.41 C0.02 2.1, -0.02 1.76, 0 0.8 M0 0.8 C0.34 0.53, -0.17 -0.45, 0.8 0 M0 0.8 C0.32 0.64, -0.11 -0.36, 0.8 0" stroke="#1e1e1e" stroke-width="1" fill="none"></path></g><g stroke-linecap="round" transform="translate(98.07556991103479 179.35781525608536) rotate(0 8.332186988999297 1.6061747184414799)"><path d="M0.8 0 C5.43 0.2, 8.07 0.26, 15.86 0 M0.8 0 C5.36 0.28, 10.57 0.21, 15.86 0 M15.86 0 C16.06 -0.28, 15.68 -0.58, 16.66 0.8 M15.86 0 C17.36 -0.67, 17.72 0.86, 16.66 0.8 M16.66 0.8 C16.71 1.33, 16.59 1.76, 16.66 2.41 M16.66 0.8 C16.66 1.19, 16.7 1.53, 16.66 2.41 M16.66 2.41 C16.17 3.75, 17.29 3.55, 15.86 3.21 M16.66 2.41 C17.58 2.98, 16.57 3.3, 15.86 3.21 M15.86 3.21 C11.12 2.96, 7.28 3.25, 0.8 3.21 M15.86 3.21 C10.91 3.13, 5.72 3.02, 0.8 3.21 M0.8 3.21 C-0.47 3.05, 0.9 2.47, 0 2.41 M0.8 3.21 C-0.27 4.04, -0.47 4.06, 0 2.41 M0 2.41 C-0.01 2.03, -0.09 1.56, 0 0.8 M0 2.41 C-0.03 1.97, 0.01 1.54, 0 0.8 M0 0.8 C-0.43 -0.18, 0.55 0.32, 0.8 0 M0 0.8 C-0.38 -0.1, -0.87 0.81, 0.8 0" stroke="#1e1e1e" stroke-width="1" fill="none"></path></g><g stroke-linecap="round" transform="translate(73.38019737664604 131.87489993495592) rotate(0 32.82667722440851 20.589942486112705)"><path d="M10.29 0 C20.23 0.5, 34.05 -0.03, 55.36 0 M10.29 0 C27.28 0.32, 43.93 -0.68, 55.36 0 M55.36 0 C60.25 -1.7, 67.33 2.26, 65.65 10.29 M55.36 0 C64.32 1.19, 65.91 2.15, 65.65 10.29 M65.65 10.29 C63.94 14.39, 64.49 22.52, 65.65 30.88 M65.65 10.29 C66.31 16.56, 65.08 25.1, 65.65 30.88 M65.65 30.88 C67.44 38.42, 63.81 41.24, 55.36 41.18 M65.65 30.88 C66 37.93, 62.27 39.22, 55.36 41.18 M55.36 41.18 C44.65 41.21, 32.03 39.65, 10.29 41.18 M55.36 41.18 C44.55 40.72, 32.51 40.96, 10.29 41.18 M10.29 41.18 C5.23 40.24, -0.94 39.19, 0 30.88 M10.29 41.18 C2.48 43.41, -0.77 39.51, 0 30.88 M0 30.88 C-1.95 25.83, -0.53 21.24, 0 10.29 M0 30.88 C0.46 24.34, -0.31 16.82, 0 10.29 M0 10.29 C0.56 4.08, 2.77 -0.63, 10.29 0 M0 10.29 C-2.27 5.06, 5.22 2, 10.29 0" stroke="#1e1e1e" stroke-width="1" fill="none"></path></g><g transform="translate(54.816710901038505 206.93684041726146) rotate(0 55.353515625 18.896889009604593)"><text x="55.353515625" y="30.4121807498325" font-family="Cascadia, Segoe UI Emoji" font-size="31.494815016007767px" fill="#343a40" text-anchor="middle" style="white-space: pre;" direction="ltr" dominant-baseline="alphabetic">client</text></g><g stroke-opacity="0" fill-opacity="0" stroke-linecap="round" transform="translate(10 475.784885652698) rotate(0 79.47004622860163 79.47004622860163)"><path d="M113.89 7.79 C123.65 11.07, 133.54 19.28, 140.48 27.36 C147.42 35.43, 152.45 45.67, 155.53 56.23 C158.62 66.8, 160.3 80.12, 158.99 90.76 C157.68 101.39, 153.43 110.94, 147.67 120.07 C141.91 129.2, 133.39 139.37, 124.43 145.53 C115.47 151.69, 104.49 155.26, 93.93 157.03 C83.37 158.8, 71.36 158.66, 61.05 156.13 C50.73 153.6, 40.77 148.37, 32.05 141.85 C23.33 135.33, 14.15 126.44, 8.73 117.01 C3.31 107.59, 0.32 95.99, -0.44 85.28 C-1.2 74.57, 0.57 62.88, 4.18 52.75 C7.79 42.61, 13.67 32.29, 21.22 24.46 C28.76 16.63, 39.25 10.03, 49.47 5.79 C59.69 1.56, 70.27 -2.19, 82.56 -0.95 C94.85 0.29, 114.84 9.42, 123.22 13.25 C131.6 17.08, 133.54 20.74, 132.84 22 M58.27 3.45 C67.73 -0.73, 78.88 -2.09, 89.53 -0.54 C100.17 1.02, 112.92 6.7, 122.14 12.78 C131.36 18.85, 139.04 27.02, 144.85 35.89 C150.66 44.76, 155.1 55.59, 157.01 65.98 C158.91 76.37, 158.67 88.08, 156.31 98.24 C153.95 108.4, 149.2 118.14, 142.84 126.93 C136.48 135.72, 127.72 145.46, 118.13 150.99 C108.55 156.52, 96.09 159.45, 85.33 160.11 C74.56 160.77, 63.5 159.04, 53.53 154.96 C43.57 150.88, 33.64 143.27, 25.51 135.63 C17.38 127.99, 8.79 118.9, 4.75 109.13 C0.72 99.35, 0.55 87.66, 1.32 76.99 C2.08 66.32, 4.8 54.62, 9.32 45.1 C13.85 35.58, 20.46 26.91, 28.45 19.88 C36.43 12.86, 52.17 5.71, 57.21 2.96 C62.26 0.2, 58.53 1.81, 58.74 3.34" stroke="#1e1e1e" stroke-width="1" fill="none"></path></g><g stroke-linecap="round" transform="translate(50.51941608486868 499.3262859954957) rotate(0 39.57328675349072 26.382191168993813)"><path d="M13.19 0 C31.41 -1.06, 47.89 -0.41, 65.96 0 M13.19 0 C31.23 0.81, 51.54 0.54, 65.96 0 M65.96 0 C72.83 -0.03, 80.23 4.44, 79.15 13.19 M65.96 0 C73.4 0.39, 77.76 6.69, 79.15 13.19 M79.15 13.19 C77.55 18.64, 78.13 25.32, 79.15 39.57 M79.15 13.19 C78.84 20.39, 78.09 24.74, 79.15 39.57 M79.15 39.57 C78.18 49.19, 74.02 51.57, 65.96 52.76 M79.15 39.57 C80.34 47.08, 73.6 52.54, 65.96 52.76 M65.96 52.76 C45.88 53.16, 30.25 51.75, 13.19 52.76 M65.96 52.76 C46.91 52.58, 28.72 51.9, 13.19 52.76 M13.19 52.76 C6.2 54.57, 0.41 50.19, 0 39.57 M13.19 52.76 C6.3 54.01, 1.9 46.82, 0 39.57 M0 39.57 C0.4 35.19, 0.64 27.47, 0 13.19 M0 39.57 C0.55 28.54, -0.79 20.13, 0 13.19 M0 13.19 C-0.85 5.08, 4.19 0.85, 13.19 0 M0 13.19 C2.2 4.73, 3.72 -1.1, 13.19 0" stroke="#1e1e1e" stroke-width="1" fill="none"></path></g><g stroke-linecap="round" transform="translate(42.97066558138613 557.9636269736684) rotate(0 46.49938064721539 6.364934233078884)"><path d="M3.18 0 C37.06 0.16, 71.16 -0.41, 89.82 0 M3.18 0 C28.32 -0.09, 52.11 -0.33, 89.82 0 M89.82 0 C92.48 0.02, 92.41 1.23, 93 3.18 M89.82 0 C91.25 1.14, 92.26 0.05, 93 3.18 M93 3.18 C92.85 4.83, 92.77 6.48, 93 9.55 M93 3.18 C92.84 5.18, 92.91 7.54, 93 9.55 M93 9.55 C92.63 11.07, 92.46 12.17, 89.82 12.73 M93 9.55 C92.42 11.55, 92.48 13.01, 89.82 12.73 M89.82 12.73 C70.05 12.56, 49.93 12.41, 3.18 12.73 M89.82 12.73 C62.24 12.11, 34.63 13.05, 3.18 12.73 M3.18 12.73 C1.26 13.64, 0.83 12.21, 0 9.55 M3.18 12.73 C2.01 11.96, -0.79 11.58, 0 9.55 M0 9.55 C0.09 7.11, 0.27 4.58, 0 3.18 M0 9.55 C-0.15 7.84, -0.08 5.89, 0 3.18 M0 3.18 C-0.1 1.49, 2.02 0.14, 3.18 0 M0 3.18 C-0.34 0.51, 0.61 -0.29, 3.18 0" stroke="#1e1e1e" stroke-width="1" fill="none"></path></g><g stroke-linecap="round" transform="translate(111.53564960861377 562.6252689471912) rotate(0 8.332186988999297 1.6061747184414799)"><path d="M0.8 0 C5.29 -0.4, 8.83 -0.53, 15.86 0 M0.8 0 C6.07 -0.04, 12.25 -0.03, 15.86 0 M15.86 0 C15.81 0.17, 16.06 1.26, 16.66 0.8 M15.86 0 C15.66 -1.01, 16.28 -0.52, 16.66 0.8 M16.66 0.8 C16.61 1.2, 16.69 1.62, 16.66 2.41 M16.66 0.8 C16.64 1.46, 16.64 2.05, 16.66 2.41 M16.66 2.41 C17.19 2.39, 15.9 3.11, 15.86 3.21 M16.66 2.41 C17.21 3.23, 15.63 2.21, 15.86 3.21 M15.86 3.21 C11.22 2.82, 5.86 3.05, 0.8 3.21 M15.86 3.21 C12.13 3.48, 7.8 3.48, 0.8 3.21 M0.8 3.21 C1.09 3.75, 0.83 2.27, 0 2.41 M0.8 3.21 C-0.53 3.12, 0.97 3.16, 0 2.41 M0 2.41 C0.07 1.77, -0.01 1.21, 0 0.8 M0 2.41 C-0.01 2.08, 0 1.74, 0 0.8 M0 0.8 C0.96 0.41, -0.03 -0.48, 0.8 0 M0 0.8 C-0.45 -0.03, 0.34 0.27, 0.8 0" stroke="#1e1e1e" stroke-width="1" fill="none"></path></g><g stroke-linecap="round" transform="translate(82.01191710963803 552.9135148356845) rotate(0 8.332186988999297 1.6061747184414799)"><path d="M0.8 0 C5.25 -0.49, 10.48 0.7, 15.86 0 M0.8 0 C6.22 0.01, 11.01 0.07, 15.86 0 M15.86 0 C15.8 1, 16.02 -0.61, 16.66 0.8 M15.86 0 C16.01 -0.79, 16.22 -0.18, 16.66 0.8 M16.66 0.8 C16.69 1.24, 16.74 1.64, 16.66 2.41 M16.66 0.8 C16.65 1.11, 16.68 1.45, 16.66 2.41 M16.66 2.41 C16.16 2.85, 16.87 3.46, 15.86 3.21 M16.66 2.41 C15.9 1.94, 16.82 3.75, 15.86 3.21 M15.86 3.21 C12 3.04, 7.6 3.55, 0.8 3.21 M15.86 3.21 C12.89 3.62, 10.08 3.48, 0.8 3.21 M0.8 3.21 C1.09 2.54, -0.69 2.87, 0 2.41 M0.8 3.21 C1.24 3.43, 0.98 3.3, 0 2.41 M0 2.41 C-0.01 1.96, -0.08 1.36, 0 0.8 M0 2.41 C0 1.8, 0.04 1.16, 0 0.8 M0 0.8 C-0.29 -0.21, -0.12 -0.26, 0.8 0 M0 0.8 C0.07 0.54, 1.18 0.88, 0.8 0" stroke="#1e1e1e" stroke-width="1" fill="none"></path></g><g stroke-linecap="round" transform="translate(57.31654457524883 505.43059951455507) rotate(0 32.82667722440851 20.589942486112705)"><path d="M10.29 0 C22.88 2.06, 33.45 -1.6, 55.36 0 M10.29 0 C23.15 0.16, 36.58 0.99, 55.36 0 M55.36 0 C60.93 -1.76, 64.98 2.06, 65.65 10.29 M55.36 0 C61.33 -0.9, 65.3 1.96, 65.65 10.29 M65.65 10.29 C67.66 13.94, 63.91 20.55, 65.65 30.88 M65.65 10.29 C66.1 16.76, 65.08 24.25, 65.65 30.88 M65.65 30.88 C66.6 38.24, 60.89 39.43, 55.36 41.18 M65.65 30.88 C66.51 38.83, 61.46 42.5, 55.36 41.18 M55.36 41.18 C43.42 42.09, 30.73 42.9, 10.29 41.18 M55.36 41.18 C38.59 42.13, 21 40.92, 10.29 41.18 M10.29 41.18 C2.05 41.02, 1.69 38.13, 0 30.88 M10.29 41.18 C5.4 41.89, 0.1 39.72, 0 30.88 M0 30.88 C-1.68 23.48, 1.85 18.63, 0 10.29 M0 30.88 C0.98 24.15, -0.27 16.66, 0 10.29 M0 10.29 C-0.78 2.92, 3.56 0.47, 10.29 0 M0 10.29 C1.83 5.2, 1.73 1.25, 10.29 0" stroke="#1e1e1e" stroke-width="1" fill="none"></path></g><g transform="translate(38.753058099641294 580.4925399968606) rotate(0 55.353515625 18.896889009604593)"><text x="55.353515625" y="30.4121807498325" font-family="Cascadia, Segoe UI Emoji" font-size="31.494815016007767px" fill="#343a40" text-anchor="middle" style="white-space: pre;" direction="ltr" dominant-baseline="alphabetic">client</text></g><g stroke-linecap="round" transform="translate(307.53160727596173 287.0626505820396) rotate(0 112.69814276701732 71.40243155588496)"><path d="M7.86 8.16 C7.86 8.16, 7.86 8.16, 7.86 8.16 M7.86 8.16 C7.86 8.16, 7.86 8.16, 7.86 8.16 M1.43 27.75 C10.12 19.1, 17.18 9.64, 24.4 1.33 M1.43 27.75 C7.43 19.3, 15.4 12.16, 24.4 1.33 M0.91 40.54 C11.6 29.23, 21.02 15.13, 36.34 -0.21 M0.91 40.54 C11.92 27, 24.4 12.56, 36.34 -0.21 M1.04 52.58 C11.9 38.73, 21.7 25.02, 46.97 -0.25 M1.04 52.58 C18.5 33.33, 35.2 13.72, 46.97 -0.25 M1.18 64.62 C19.47 44.06, 39.26 23.64, 57.6 -0.28 M1.18 64.62 C21.87 40.98, 42.95 18.32, 57.6 -0.28 M1.31 76.67 C20.83 52.62, 42.25 27.94, 67.57 0.44 M1.31 76.67 C15.83 58.69, 32.08 41.42, 67.57 0.44 M1.44 88.71 C22.98 67.04, 39.52 45.55, 78.2 0.41 M1.44 88.71 C23.55 61.91, 46.91 37.28, 78.2 0.41 M0.92 101.5 C35.26 61.65, 69.33 22.75, 88.83 0.37 M0.92 101.5 C27.28 71.08, 54.83 38.41, 88.83 0.37 M1.05 113.54 C25.32 83.08, 53.38 54.92, 99.46 0.34 M1.05 113.54 C33.11 78.08, 63.56 41.14, 99.46 0.34 M2.5 124.07 C29.95 93.79, 59.03 58.69, 110.09 0.3 M2.5 124.07 C25.62 96.65, 49.82 70.41, 110.09 0.3 M5.91 132.34 C43.32 91.1, 78.63 49.12, 120.72 0.27 M5.91 132.34 C38.24 95.51, 71.31 57.62, 120.72 0.27 M11.95 137.59 C60.62 82.99, 107.07 30.42, 131.35 0.23 M11.95 137.59 C52.84 92.46, 92.72 47.36, 131.35 0.23 M19.96 140.57 C52.62 102, 84.9 66.88, 141.98 0.2 M19.96 140.57 C46.86 107.69, 75.27 77.19, 141.98 0.2 M28.62 142.8 C75.93 89.69, 120.29 34, 152.61 0.16 M28.62 142.8 C53.69 113.58, 80.99 81.82, 152.61 0.16 M39.25 142.77 C85.49 88.51, 132.22 35.68, 163.24 0.13 M39.25 142.77 C71.03 105.22, 102.85 67.07, 163.24 0.13 M49.88 142.73 C81.25 106.61, 114.81 69.98, 173.87 0.09 M49.88 142.73 C78.15 111.59, 103.22 80.43, 173.87 0.09 M59.85 143.45 C85.51 114.58, 111.23 83.77, 184.5 0.06 M59.85 143.45 C95.13 102.97, 129.69 60.97, 184.5 0.06 M70.48 143.42 C96.73 112.8, 123.67 80.02, 195.13 0.03 M70.48 143.42 C100.3 109.67, 130.05 73.82, 195.13 0.03 M81.11 143.39 C118.57 101.22, 153.77 55.23, 204.45 1.5 M81.11 143.39 C116.46 104.35, 150.03 66.27, 204.45 1.5 M91.74 143.35 C127.46 103.19, 163.25 62.55, 212.46 4.48 M91.74 143.35 C116.32 111.89, 142.56 83.09, 212.46 4.48 M102.37 143.32 C136.45 104.16, 173.15 66.39, 218.5 9.73 M102.37 143.32 C147.16 90.02, 193.09 40.3, 218.5 9.73 M113 143.28 C142.35 112.07, 172.25 77.52, 223.22 16.49 M113 143.28 C156.29 93.4, 200.38 41.86, 223.22 16.49 M123.63 143.25 C148.88 113.78, 172.89 88.23, 225.32 26.27 M123.63 143.25 C147.08 115.82, 173.6 86.83, 225.32 26.27 M134.26 143.21 C165.81 105.48, 197.67 68.05, 225.46 38.31 M134.26 143.21 C159.44 114.45, 184.37 85.9, 225.46 38.31 M144.89 143.18 C165.28 119.71, 185.96 91.89, 225.59 50.35 M144.89 143.18 C165.66 117.9, 188.85 93.41, 225.59 50.35 M155.52 143.14 C179.06 114.83, 202.64 90.09, 225.72 62.39 M155.52 143.14 C173.47 121.21, 192.69 101.97, 225.72 62.39 M166.15 143.11 C184.31 120.3, 201.83 101.24, 225.85 74.43 M166.15 143.11 C187.02 117.96, 208.99 94.27, 225.85 74.43 M176.78 143.08 C189.04 131.93, 198.83 116.78, 225.33 87.23 M176.78 143.08 C196.44 121.02, 214.35 97.44, 225.33 87.23 M187.41 143.04 C200.64 128.53, 214.42 109.27, 225.47 99.27 M187.41 143.04 C202.66 126.6, 216.4 108.84, 225.47 99.27 M198.7 142.25 C207.73 132.53, 219.99 118.92, 225.6 111.31 M198.7 142.25 C206.52 133.13, 212.75 125.9, 225.6 111.31 M211.95 139.2 C214.64 134.87, 217.73 132.76, 223.11 126.37 M211.95 139.2 C215.6 135.56, 217.83 131.44, 223.11 126.37" stroke="#ffd8a8" stroke-width="1" fill="none"></path><path d="M32 0 C74.78 0.91, 117.72 1.14, 193.4 0 M32 0 C93.1 -0.67, 156.11 -0.69, 193.4 0 M193.4 0 C216.19 -0.36, 224.55 9.93, 225.4 32 M193.4 0 C214.09 1.43, 224.29 8.48, 225.4 32 M225.4 32 C225.65 62.42, 226.92 92.17, 225.4 110.8 M225.4 32 C225.63 58.74, 225.15 84.05, 225.4 110.8 M225.4 110.8 C227.18 133.99, 213.03 144.76, 193.4 142.8 M225.4 110.8 C224.18 130.32, 214.55 144.11, 193.4 142.8 M193.4 142.8 C153.04 143.08, 112.53 142.67, 32 142.8 M193.4 142.8 C141.52 143.53, 89.8 143.26, 32 142.8 M32 142.8 C12.1 141.36, 1.82 131.12, 0 110.8 M32 142.8 C11.74 140.84, 0.7 130.37, 0 110.8 M0 110.8 C1.27 80.17, 1.62 52, 0 32 M0 110.8 C-0.76 82.46, -0.25 55.71, 0 32 M0 32 C-0.5 11.76, 12.25 1.42, 32 0 M0 32 C1.7 9.85, 9.57 1.62, 32 0" stroke="#1e1e1e" stroke-width="2" fill="none"></path></g><g transform="translate(367.49537504297905 336.8650821379247) rotate(0 52.734375 21.59999999999991)"><text x="52.734375" y="34.762499999999996" font-family="Cascadia, Segoe UI Emoji" font-size="36px" fill="#1e1e1e" text-anchor="middle" style="white-space: pre;" direction="ltr" dominant-baseline="alphabetic">ngrok</text></g><g stroke-linecap="round" transform="translate(1376.734399492562 276.57581309282887) rotate(0 139.59718401463567 77.37326099338406)"><path d="M7.86 8.16 C7.86 8.16, 7.86 8.16, 7.86 8.16 M7.86 8.16 C7.86 8.16, 7.86 8.16, 7.86 8.16 M1.43 27.75 C7.78 20.17, 14.92 14.06, 24.4 1.33 M1.43 27.75 C7.69 19.41, 14.31 11.82, 24.4 1.33 M0.91 40.54 C14.27 25.94, 25.32 11.22, 36.34 -0.21 M0.91 40.54 C9.33 30.29, 19.76 20.57, 36.34 -0.21 M1.04 52.58 C15.58 37.45, 29.67 22.16, 46.97 -0.25 M1.04 52.58 C15.81 36.18, 30.56 19.35, 46.97 -0.25 M1.18 64.62 C19.56 40.61, 38.49 20.54, 57.6 -0.28 M1.18 64.62 C22.18 40.19, 42.43 16.09, 57.6 -0.28 M1.31 76.67 C15.71 57.7, 32.61 40.27, 67.57 0.44 M1.31 76.67 C21.32 54.12, 42.51 29.47, 67.57 0.44 M1.44 88.71 C29.31 57.66, 55.79 21.79, 78.2 0.41 M1.44 88.71 C29.14 56.42, 56.13 24.4, 78.2 0.41 M0.92 101.5 C24.19 74.02, 46.47 48.11, 88.83 0.37 M0.92 101.5 C25.03 73.06, 48.96 44.42, 88.83 0.37 M1.05 113.54 C33.11 77.74, 64.73 42, 99.46 0.34 M1.05 113.54 C39.61 71.22, 75.26 27.96, 99.46 0.34 M1.19 125.58 C33.12 86.91, 66.67 50.67, 110.09 0.3 M1.19 125.58 C45.36 77.74, 88.06 26.89, 110.09 0.3 M2.63 136.11 C32.66 101.21, 65.21 66.47, 120.72 0.27 M2.63 136.11 C38.55 96.87, 74.43 55.69, 120.72 0.27 M6.05 144.38 C39 107.85, 73.46 68.81, 131.35 0.23 M6.05 144.38 C49.13 94.05, 93.17 43.85, 131.35 0.23 M12.08 149.63 C48.03 107.78, 86.22 63.67, 141.98 0.2 M12.08 149.63 C46.09 112.78, 79.63 74.09, 141.98 0.2 M20.09 152.61 C67.47 100.43, 112.44 46.23, 152.61 0.16 M20.09 152.61 C66.4 98.46, 115.12 43.64, 152.61 0.16 M28.75 154.84 C59.85 119.9, 88.79 89.44, 163.24 0.13 M28.75 154.84 C67.14 109.34, 107.85 62.51, 163.24 0.13 M39.38 154.81 C87.21 103.54, 133.6 50.59, 173.87 0.09 M39.38 154.81 C89.72 99, 138.08 42.56, 173.87 0.09 M50.01 154.78 C97.62 101.13, 145.31 46.92, 184.5 0.06 M50.01 154.78 C87.67 110.77, 127.27 67.35, 184.5 0.06 M59.99 155.5 C109.08 99.95, 156.43 46.16, 195.13 0.03 M59.99 155.5 C97.36 112.79, 135.61 69.86, 195.13 0.03 M70.62 155.46 C114.02 105.65, 154.18 58.33, 205.76 -0.01 M70.62 155.46 C101.76 116.33, 134.77 79.71, 205.76 -0.01 M81.25 155.43 C116.25 113.97, 152.93 70.01, 216.39 -0.04 M81.25 155.43 C118.06 114.52, 153.83 72.27, 216.39 -0.04 M91.88 155.39 C140.87 97.07, 193.12 38.81, 227.02 -0.08 M91.88 155.39 C146.05 94.58, 198.68 33.84, 227.02 -0.08 M102.51 155.36 C139.14 111.46, 176.01 68.16, 237.65 -0.11 M102.51 155.36 C144.52 108.68, 185.12 60.97, 237.65 -0.11 M113.14 155.32 C161.38 100.19, 209.85 44.53, 247.63 0.61 M113.14 155.32 C153.72 106.88, 194.97 59.24, 247.63 0.61 M123.77 155.29 C169.21 99.71, 215.77 49.13, 257.6 1.33 M123.77 155.29 C156.45 119.61, 188.06 83.23, 257.6 1.33 M134.4 155.25 C174.25 105.52, 218.88 55.4, 265.61 4.31 M134.4 155.25 C185.73 96.28, 238.16 37.84, 265.61 4.31 M145.03 155.22 C188.1 102.97, 234.52 51.64, 271.65 9.56 M145.03 155.22 C180.1 113.57, 213.75 74.67, 271.65 9.56 M155.66 155.19 C191.25 114.52, 226.61 73.95, 276.37 16.32 M155.66 155.19 C199.09 106.75, 242.2 57.35, 276.37 16.32 M166.29 155.15 C207.55 104.64, 252.56 55.39, 278.47 26.1 M166.29 155.15 C204.21 110.27, 241.42 67, 278.47 26.1 M176.92 155.12 C207.83 118.11, 241.09 84.49, 279.92 36.63 M176.92 155.12 C213.39 111.14, 252.59 69.49, 279.92 36.63 M187.55 155.08 C222.73 118.34, 258.57 76.58, 279.4 49.42 M187.55 155.08 C215.29 124.36, 242.18 92.51, 279.4 49.42 M198.18 155.05 C228.7 120.64, 257.12 88.83, 279.53 61.46 M198.18 155.05 C221.27 127.14, 245.26 100.76, 279.53 61.46 M208.81 155.01 C229.2 129.76, 250.74 105.46, 279.66 73.5 M208.81 155.01 C231.79 129.26, 253.96 102.61, 279.66 73.5 M219.44 154.98 C237.99 131.86, 256.25 112.28, 279.79 85.55 M219.44 154.98 C235.4 134.89, 253.17 115.46, 279.79 85.55 M230.07 154.94 C240.3 142.96, 252.52 130.17, 279.93 97.59 M230.07 154.94 C246.01 134.11, 264.34 114.55, 279.93 97.59 M240.7 154.91 C254.95 137, 268.91 122.07, 279.4 110.38 M240.7 154.91 C253.56 139.7, 267.3 124.22, 279.4 110.38 M251.98 154.12 C259.42 147.32, 265.05 141.33, 279.54 122.42 M251.98 154.12 C263.28 141.79, 273.79 128.43, 279.54 122.42 M263.93 152.58 C269.77 145.96, 274.06 143.91, 276.39 138.24 M263.93 152.58 C268.58 146.96, 273.32 141.38, 276.39 138.24" stroke="#ffd8a8" stroke-width="1" fill="none"></path><path d="M32 0 C104.98 -0.72, 174.01 0.32, 247.19 0 M32 0 C106.94 1.83, 182.43 1.68, 247.19 0 M247.19 0 C269.07 0.23, 279.25 9.69, 279.19 32 M247.19 0 C268.47 1.77, 278.23 9.86, 279.19 32 M279.19 32 C280.16 63.54, 278.8 90.39, 279.19 122.75 M279.19 32 C278.61 63.27, 279.6 95, 279.19 122.75 M279.19 122.75 C278.72 143.07, 267.27 154.8, 247.19 154.75 M279.19 122.75 C280 142.27, 270.16 155.1, 247.19 154.75 M247.19 154.75 C160.69 157.39, 77.54 157.17, 32 154.75 M247.19 154.75 C170.79 153.58, 95.47 153.15, 32 154.75 M32 154.75 C9.89 156.36, -0.95 142.47, 0 122.75 M32 154.75 C12.51 153.64, 0.35 145.39, 0 122.75 M0 122.75 C1.49 94.47, 0.69 63.07, 0 32 M0 122.75 C-1.06 88.08, -1.57 53.22, 0 32 M0 32 C-1.91 9.89, 11.07 -0.26, 32 0 M0 32 C0.54 12.07, 10.02 -0.78, 32 0" stroke="#1e1e1e" stroke-width="2" fill="none"></path></g><g transform="translate(1442.5034585071976 332.349074086213) rotate(0 73.828125 21.59999999999991)"><text x="73.828125" y="34.762499999999996" font-family="Cascadia, Segoe UI Emoji" font-size="36px" fill="#1e1e1e" text-anchor="middle" style="white-space: pre;" direction="ltr" dominant-baseline="alphabetic">Traefik</text></g><g stroke-linecap="round" transform="translate(880.2917559822911 273.2873105853737) rotate(0 139.59718401463567 77.37326099338406)"><path d="M7.86 8.16 C7.86 8.16, 7.86 8.16, 7.86 8.16 M7.86 8.16 C7.86 8.16, 7.86 8.16, 7.86 8.16 M1.43 27.75 C8.99 18.42, 19.4 6.15, 24.4 1.33 M1.43 27.75 C10.06 18.89, 17.27 9.39, 24.4 1.33 M0.91 40.54 C10.94 25.67, 24.4 14.41, 36.34 -0.21 M0.91 40.54 C12.26 27.27, 24.45 15.02, 36.34 -0.21 M1.04 52.58 C16.81 33.88, 30.71 16.39, 46.97 -0.25 M1.04 52.58 C18.53 32.63, 34.77 13.38, 46.97 -0.25 M1.18 64.62 C21.92 43.65, 41.89 18.45, 57.6 -0.28 M1.18 64.62 C20.41 42.79, 39.98 21.19, 57.6 -0.28 M1.31 76.67 C15.97 57.51, 32.94 39.5, 67.57 0.44 M1.31 76.67 C19.85 55.22, 37.31 33.72, 67.57 0.44 M1.44 88.71 C25.19 62.96, 49.88 36, 78.2 0.41 M1.44 88.71 C30.64 52.78, 61.64 19.65, 78.2 0.41 M0.92 101.5 C27.33 72.08, 54.07 41.37, 88.83 0.37 M0.92 101.5 C27.97 70.8, 53.05 39.72, 88.83 0.37 M1.05 113.54 C26.08 86.82, 47.83 56.62, 99.46 0.34 M1.05 113.54 C24.78 85.1, 48.92 59.32, 99.46 0.34 M1.19 125.58 C33.63 87.16, 65.06 50.15, 110.09 0.3 M1.19 125.58 C27.07 94.22, 54.54 63.8, 110.09 0.3 M2.63 136.11 C46.21 86.86, 89.44 37.43, 120.72 0.27 M2.63 136.11 C30.31 104.24, 58.53 72.87, 120.72 0.27 M6.05 144.38 C46.58 96.99, 86.54 51.26, 131.35 0.23 M6.05 144.38 C49.14 95.71, 92.38 45.56, 131.35 0.23 M12.08 149.63 C47.73 105.82, 83.74 65.58, 141.98 0.2 M12.08 149.63 C40.25 117.08, 68.01 82.25, 141.98 0.2 M20.09 152.61 C49.45 118.17, 76.31 86.76, 152.61 0.16 M20.09 152.61 C70.2 95.31, 120.34 36.76, 152.61 0.16 M28.75 154.84 C75.49 99.97, 122.67 48.34, 163.24 0.13 M28.75 154.84 C62.92 115.38, 96.14 75.58, 163.24 0.13 M39.38 154.81 C76.5 111.17, 115.17 64.8, 173.87 0.09 M39.38 154.81 C90.95 95.97, 141.69 36.73, 173.87 0.09 M50.01 154.78 C98.47 102.73, 144.16 48.27, 184.5 0.06 M50.01 154.78 C84.73 112.96, 120.36 73.65, 184.5 0.06 M59.99 155.5 C96.03 114.92, 131.99 73.53, 195.13 0.03 M59.99 155.5 C105.48 103.11, 149.92 53.32, 195.13 0.03 M70.62 155.46 C121.53 94.69, 172.28 35.49, 205.76 -0.01 M70.62 155.46 C123.59 95.88, 177.35 33.63, 205.76 -0.01 M81.25 155.43 C126.37 103.59, 171.02 54.52, 216.39 -0.04 M81.25 155.43 C112.78 117.91, 145.54 81.81, 216.39 -0.04 M91.88 155.39 C119.58 125.36, 144.68 92.1, 227.02 -0.08 M91.88 155.39 C129.01 113.42, 166 71.57, 227.02 -0.08 M102.51 155.36 C138.27 113.96, 171.42 77.94, 237.65 -0.11 M102.51 155.36 C139.3 112.23, 178.4 66.91, 237.65 -0.11 M113.14 155.32 C148.13 111.77, 184.99 72.42, 247.63 0.61 M113.14 155.32 C157.88 104.8, 200.79 54.75, 247.63 0.61 M123.77 155.29 C160.57 113.42, 197.4 71.52, 257.6 1.33 M123.77 155.29 C158.35 113.22, 195.36 71.12, 257.6 1.33 M134.4 155.25 C170.57 113.55, 208.35 69.78, 265.61 4.31 M134.4 155.25 C169.07 115.5, 204.79 73.4, 265.61 4.31 M145.03 155.22 C172.22 123.09, 201.74 90.57, 271.65 9.56 M145.03 155.22 C189.57 103.76, 235.15 53.46, 271.65 9.56 M155.66 155.19 C186.63 118.01, 220.03 76.59, 276.37 16.32 M155.66 155.19 C184.15 121.34, 211.79 88.45, 276.37 16.32 M166.29 155.15 C188.16 131.19, 214.04 103.38, 278.47 26.1 M166.29 155.15 C203.61 109.51, 241.9 65.53, 278.47 26.1 M176.92 155.12 C210.3 120.31, 239.05 83.2, 279.92 36.63 M176.92 155.12 C199.03 129.73, 222.89 101.77, 279.92 36.63 M187.55 155.08 C217.39 122.83, 246.11 91.99, 279.4 49.42 M187.55 155.08 C221.85 113.89, 256.29 74.36, 279.4 49.42 M198.18 155.05 C227.66 123.17, 254.43 86.42, 279.53 61.46 M198.18 155.05 C219.36 132.29, 240.03 108.16, 279.53 61.46 M208.81 155.01 C231.33 130.13, 249.06 109, 279.66 73.5 M208.81 155.01 C226.37 133.89, 243.84 113.52, 279.66 73.5 M219.44 154.98 C233.99 137.8, 250.48 118.86, 279.79 85.55 M219.44 154.98 C231.89 139.32, 245.62 126.91, 279.79 85.55 M230.07 154.94 C244.65 138.05, 261.86 117.67, 279.93 97.59 M230.07 154.94 C244.89 136.48, 261.09 118.7, 279.93 97.59 M240.7 154.91 C254.39 139.62, 266.71 126.79, 279.4 110.38 M240.7 154.91 C256.17 137.14, 271.6 119.26, 279.4 110.38 M251.98 154.12 C262.96 142.05, 273.07 131.48, 279.54 122.42 M251.98 154.12 C261.2 143.51, 270.15 133.76, 279.54 122.42 M263.93 152.58 C268.7 145.87, 271.62 142.19, 276.39 138.24 M263.93 152.58 C267.03 150.09, 269.93 146.06, 276.39 138.24" stroke="#ffd8a8" stroke-width="1" fill="none"></path><path d="M32 0 C112.42 3.51, 194.25 1.58, 247.19 0 M32 0 C95.51 1.1, 159.02 0.65, 247.19 0 M247.19 0 C269.75 1.52, 280.44 12.5, 279.19 32 M247.19 0 C268.43 0.98, 281.41 10.63, 279.19 32 M279.19 32 C276.87 65.07, 280.02 101.27, 279.19 122.75 M279.19 32 C278.29 58.2, 278.68 86.27, 279.19 122.75 M279.19 122.75 C279.15 145.28, 269.33 156.01, 247.19 154.75 M279.19 122.75 C279.21 143.95, 269.01 154.79, 247.19 154.75 M247.19 154.75 C196.63 154.84, 149.04 154.77, 32 154.75 M247.19 154.75 C169.48 152.97, 89.56 153.24, 32 154.75 M32 154.75 C10.27 153.01, 1.33 142.9, 0 122.75 M32 154.75 C12.92 155.77, 1.27 145.65, 0 122.75 M0 122.75 C-0.39 105.23, -1.18 85.66, 0 32 M0 122.75 C0.68 97.88, 1.08 72.21, 0 32 M0 32 C-0.1 10.44, 11.78 -0.98, 32 0 M0 32 C-2.21 9.85, 10.61 1.96, 32 0" stroke="#1e1e1e" stroke-width="2" fill="none"></path></g><g transform="translate(903.8733149969266 329.06057157875784) rotate(0 116.015625 21.59999999999991)"><text x="116.015625" y="34.762499999999996" font-family="Cascadia, Segoe UI Emoji" font-size="36px" fill="#1e1e1e" text-anchor="middle" style="white-space: pre;" direction="ltr" dominant-baseline="alphabetic">ngrok agent</text></g><g stroke-linecap="round" transform="translate(1269.9565715315935 117.63657669563236) rotate(0 428.51056713506523 248.0723035923554)"><path d="M7.86 8.16 C7.86 8.16, 7.86 8.16, 7.86 8.16 M7.86 8.16 C7.86 8.16, 7.86 8.16, 7.86 8.16 M1.43 27.75 C10.19 19.52, 17.39 13.1, 24.4 1.33 M1.43 27.75 C9.99 18.19, 20.43 6.82, 24.4 1.33 M0.26 41.3 C10.07 33.55, 14.93 24.23, 36.34 -0.21 M0.26 41.3 C13.25 26.82, 26.39 9.96, 36.34 -0.21 M0.39 53.34 C12.66 37.94, 24.59 22.14, 46.97 -0.25 M0.39 53.34 C16.9 33.99, 35.17 13.2, 46.97 -0.25 M0.52 65.38 C17.49 46.26, 35.16 25.59, 57.6 -0.28 M0.52 65.38 C16.43 46.89, 33.78 27.44, 57.6 -0.28 M0 78.17 C17.81 62.18, 29.78 42.02, 67.57 0.44 M0 78.17 C13.38 62.51, 27.88 45.83, 67.57 0.44 M0.13 90.22 C16.66 72.22, 37.39 49.72, 78.2 0.41 M0.13 90.22 C29.02 57.88, 56.95 26.24, 78.2 0.41 M0.26 102.26 C27.14 71.47, 57.14 35.91, 88.83 0.37 M0.26 102.26 C33.16 65.71, 64.88 26.8, 88.83 0.37 M0.4 114.3 C27.96 84.67, 51.26 54.45, 99.46 0.34 M0.4 114.3 C24.57 85.66, 48.69 58.25, 99.46 0.34 M0.53 126.34 C31.63 89.1, 62.09 54.33, 110.09 0.3 M0.53 126.34 C25.28 96.63, 51.17 67.91, 110.09 0.3 M0.01 139.13 C32.26 103.81, 64.09 63.9, 120.72 0.27 M0.01 139.13 C47.22 85.84, 93.76 31.74, 120.72 0.27 M0.14 151.17 C51.74 92.66, 98.09 35.65, 131.35 0.23 M0.14 151.17 C32.37 114.24, 65.2 77.95, 131.35 0.23 M0.27 163.22 C44.36 111.73, 90.67 59.59, 141.98 0.2 M0.27 163.22 C49.23 107.89, 98.85 52.35, 141.98 0.2 M0.41 175.26 C55.16 110.29, 113.28 46.36, 152.61 0.16 M0.41 175.26 C58.56 108.7, 115.28 43.97, 152.61 0.16 M0.54 187.3 C35.28 147.42, 68.83 110.76, 163.24 0.13 M0.54 187.3 C41.82 140.32, 82.01 92.59, 163.24 0.13 M0.02 200.09 C60.84 127.89, 122.03 58.58, 173.87 0.09 M0.02 200.09 C44.66 148.69, 89.59 97.2, 173.87 0.09 M0.15 212.13 C67.66 133.38, 136.86 51.94, 184.5 0.06 M0.15 212.13 C64.87 141.21, 127.09 67.23, 184.5 0.06 M0.28 224.17 C75.08 136.23, 148.33 51.63, 195.13 0.03 M0.28 224.17 C51.88 166.13, 103.01 105.59, 195.13 0.03 M0.42 236.22 C82.24 144.52, 160.87 53.57, 205.76 -0.01 M0.42 236.22 C52.82 173.5, 106.06 112.06, 205.76 -0.01 M-0.11 249.01 C44.48 197.72, 88.16 144.16, 216.39 -0.04 M-0.11 249.01 C46.97 196.44, 93.63 143.48, 216.39 -0.04 M0.03 261.05 C52.03 200.24, 105.56 136.63, 227.02 -0.08 M0.03 261.05 C74.24 175.79, 148.13 90.72, 227.02 -0.08 M0.16 273.09 C83.08 177.3, 163.55 85.08, 237.65 -0.11 M0.16 273.09 C64.92 200.65, 129.42 126.21, 237.65 -0.11 M0.29 285.13 C59.82 214.21, 119.37 147.15, 248.28 -0.15 M0.29 285.13 C64.08 209.46, 129.47 133.72, 248.28 -0.15 M0.43 297.17 C98.24 181.62, 200.97 64.19, 258.91 -0.18 M0.43 297.17 C61.03 225.42, 121.98 155.75, 258.91 -0.18 M-0.1 309.97 C97.1 199.68, 192.85 89.98, 269.54 -0.22 M-0.1 309.97 C78.2 219.37, 156.78 128.45, 269.54 -0.22 M0.04 322.01 C91.3 216.38, 181.32 112.59, 280.17 -0.25 M0.04 322.01 C76.31 233.49, 151.75 145.97, 280.17 -0.25 M0.17 334.05 C76.35 246.85, 153.16 159.06, 290.8 -0.28 M0.17 334.05 C64.73 257.95, 129.53 183.01, 290.8 -0.28 M0.3 346.09 C65.88 272.96, 129.12 197.84, 300.78 0.44 M0.3 346.09 C111.08 217.94, 222.87 89.72, 300.78 0.44 M0.44 358.13 C85.63 259.68, 170.37 162, 311.41 0.4 M0.44 358.13 C114.63 225.28, 230.1 93.16, 311.41 0.4 M-0.09 370.93 C91.42 264.68, 184.51 158.95, 322.04 0.37 M-0.09 370.93 C89.27 266.88, 179.85 162.88, 322.04 0.37 M0.05 382.97 C76.64 294.76, 152.04 208.52, 332.67 0.33 M0.05 382.97 C77.5 293.96, 155.16 204.3, 332.67 0.33 M0.18 395.01 C92.45 287.37, 185.59 180.52, 343.3 0.3 M0.18 395.01 C135.2 240.05, 269.13 85.8, 343.3 0.3 M0.31 407.05 C142.01 246.67, 281.73 85.42, 353.93 0.26 M0.31 407.05 C75.67 319.19, 151.49 231.2, 353.93 0.26 M0.45 419.09 C94.03 310.59, 189.15 201.45, 364.56 0.23 M0.45 419.09 C85.99 322.08, 171.59 223.53, 364.56 0.23 M-0.08 431.89 C144.01 265.99, 288.22 100.69, 375.19 0.19 M-0.08 431.89 C114.83 298.68, 231.53 165.3, 375.19 0.19 M0.06 443.93 C91.33 340.65, 181.84 238.01, 385.82 0.16 M0.06 443.93 C151.48 270.03, 302.93 95.98, 385.82 0.16 M0.19 455.97 C85.69 356.19, 171.23 258.23, 396.45 0.12 M0.19 455.97 C81.21 360.4, 163.49 266.7, 396.45 0.12 M0.98 467.26 C142.7 304.29, 283.67 141.37, 407.08 0.09 M0.98 467.26 C162.16 284.57, 321.52 101.09, 407.08 0.09 M1.77 478.54 C106.36 357.49, 213.43 235.69, 417.71 0.06 M1.77 478.54 C166.63 289.93, 329.45 101.97, 417.71 0.06 M6.49 485.3 C108.18 370.04, 209.76 252.15, 428.34 0.02 M6.49 485.3 C93.23 385.86, 179.07 288.2, 428.34 0.02 M11.88 491.3 C133.16 351.12, 256.65 208.94, 438.97 -0.01 M11.88 491.3 C116.48 371.28, 221.9 250.15, 438.97 -0.01 M19.88 494.29 C163.18 330.26, 305.93 166.97, 449.6 -0.05 M19.88 494.29 C166.42 327.06, 312.09 159.05, 449.6 -0.05 M28.54 496.52 C134.08 377.74, 237.38 258.95, 460.23 -0.08 M28.54 496.52 C179.78 322.51, 330.05 149.5, 460.23 -0.08 M39.17 496.48 C174.48 339.84, 309.63 184.64, 470.86 -0.12 M39.17 496.48 C197.35 314, 355.05 132.82, 470.86 -0.12 M49.8 496.45 C160.53 371.57, 271.46 244.5, 481.49 -0.15 M49.8 496.45 C209.79 313.45, 368.39 130.98, 481.49 -0.15 M60.43 496.41 C174.48 365.01, 287.38 234.18, 492.12 -0.19 M60.43 496.41 C228.72 305.59, 395.06 113.73, 492.12 -0.19 M71.06 496.38 C162.85 391.48, 254.73 285.37, 502.75 -0.22 M71.06 496.38 C231.33 313.58, 391.37 128.98, 502.75 -0.22 M81.69 496.34 C230.31 327.26, 376.21 157.23, 513.38 -0.25 M81.69 496.34 C234.04 318.97, 387.32 142.5, 513.38 -0.25 M92.32 496.31 C189.53 385.25, 286.39 273.46, 523.35 0.47 M92.32 496.31 C229.42 336.39, 368.1 176.82, 523.35 0.47 M102.95 496.28 C224.87 357.7, 344.68 219.93, 533.98 0.43 M102.95 496.28 C259.88 314.52, 418.92 131.76, 533.98 0.43 M113.58 496.24 C256.19 333.88, 396.06 171.99, 544.61 0.4 M113.58 496.24 C277.66 308.56, 439.02 122.33, 544.61 0.4 M124.21 496.21 C249.94 350.76, 375.8 205.33, 555.24 0.36 M124.21 496.21 C284.08 313.85, 443.14 130.35, 555.24 0.36 M134.19 496.93 C300.86 307.09, 468.17 116.32, 565.87 0.33 M134.19 496.93 C301.84 305.7, 469.09 112.9, 565.87 0.33 M144.82 496.89 C309.99 308.85, 472.66 121, 576.5 0.29 M144.82 496.89 C252.32 373.27, 358.07 251.72, 576.5 0.29 M155.45 496.86 C328.7 298.98, 501.2 101.36, 587.14 0.26 M155.45 496.86 C243.46 394.38, 330.98 292.96, 587.14 0.26 M166.08 496.82 C256.5 392.2, 346.3 285.93, 597.77 0.22 M166.08 496.82 C310.09 333.81, 452.7 169.27, 597.77 0.22 M176.71 496.79 C349.84 301.96, 521.32 103.6, 608.4 0.19 M176.71 496.79 C335.56 313.73, 494.78 129.87, 608.4 0.19 M187.34 496.75 C294.54 374.23, 399.64 252.81, 619.03 0.16 M187.34 496.75 C316.35 345.38, 447.82 194.14, 619.03 0.16 M197.97 496.72 C340.85 331.75, 485.35 164.79, 629.66 0.12 M197.97 496.72 C295.24 383.89, 391.4 273.58, 629.66 0.12 M208.6 496.69 C302.4 389.52, 394.14 282.62, 640.29 0.09 M208.6 496.69 C332.77 354.98, 457.53 211.95, 640.29 0.09 M219.23 496.65 C390.8 298.15, 562.98 102.29, 650.92 0.05 M219.23 496.65 C392.15 299.83, 564.42 102.19, 650.92 0.05 M229.86 496.62 C330.33 381.54, 431.5 266.66, 661.55 0.02 M229.86 496.62 C381.24 322.33, 533.54 147.1, 661.55 0.02 M240.49 496.58 C370.07 346.72, 500.2 196.79, 672.18 -0.02 M240.49 496.58 C379.59 337.23, 519.66 175.77, 672.18 -0.02 M251.12 496.55 C378.65 348.73, 506.36 203.39, 682.81 -0.05 M251.12 496.55 C342.21 389.21, 433.98 282.89, 682.81 -0.05 M261.75 496.51 C434.25 299.89, 604.42 103.13, 693.44 -0.09 M261.75 496.51 C402.63 335.91, 542.97 173.7, 693.44 -0.09 M272.38 496.48 C433.41 310.36, 594.72 124.17, 704.07 -0.12 M272.38 496.48 C415.96 334.6, 558 171.05, 704.07 -0.12 M283.01 496.44 C437.11 318.82, 589.84 141.79, 714.7 -0.16 M283.01 496.44 C422.64 335.33, 562.03 174.2, 714.7 -0.16 M293.64 496.41 C432.37 338.01, 571.95 177.58, 725.33 -0.19 M293.64 496.41 C383.26 393.11, 471.67 291.23, 725.33 -0.19 M304.27 496.37 C428.9 354.44, 550.67 214.79, 735.96 -0.22 M304.27 496.37 C447.42 330.26, 590.68 164.83, 735.96 -0.22 M314.9 496.34 C473.27 311.35, 633.71 125.79, 746.59 -0.26 M314.9 496.34 C441.42 351.83, 566.7 206.73, 746.59 -0.26 M325.53 496.31 C417.68 389.62, 509.64 282.02, 756.56 0.46 M325.53 496.31 C483.03 315.18, 639.77 135.29, 756.56 0.46 M336.16 496.27 C436.7 378.2, 538.13 261.25, 767.19 0.43 M336.16 496.27 C457.51 355.42, 580.38 214.01, 767.19 0.43 M346.79 496.24 C439.73 387.12, 533.69 279.6, 777.82 0.39 M346.79 496.24 C483.67 335.65, 622.42 175.68, 777.82 0.39 M357.42 496.2 C445.25 393.01, 534.1 290.23, 788.45 0.36 M357.42 496.2 C456.75 384.48, 554.03 272.31, 788.45 0.36 M367.39 496.92 C489.96 357.74, 612.61 216.13, 799.08 0.32 M367.39 496.92 C502.19 344.08, 635.16 191.24, 799.08 0.32 M378.02 496.89 C489.05 369.68, 598.96 243.16, 809.71 0.29 M378.02 496.89 C464.98 397.26, 552.79 296.43, 809.71 0.29 M388.65 496.85 C488.91 379.68, 592.37 262.51, 820.34 0.25 M388.65 496.85 C528.61 335.01, 667.95 175.08, 820.34 0.25 M399.28 496.82 C543.9 330.83, 687.73 165.32, 830.31 0.97 M399.28 496.82 C505.69 376.07, 610.96 254.88, 830.31 0.97 M409.91 496.78 C510.27 384.02, 609.07 269.85, 838.98 3.2 M409.91 496.78 C561.05 320.66, 712.73 145.3, 838.98 3.2 M420.54 496.75 C536.75 363.87, 654.1 228.79, 846.98 6.19 M420.54 496.75 C518.89 383.91, 615.84 272.14, 846.98 6.19 M431.17 496.72 C536.91 373.84, 641.68 251.38, 852.36 12.19 M431.17 496.72 C554.81 355.46, 677.27 214.25, 852.36 12.19 M441.8 496.68 C560.77 361.11, 679.12 224.81, 855.78 20.46 M441.8 496.68 C598.2 315.22, 755.38 135.04, 855.78 20.46 M452.43 496.65 C536.33 398.3, 621.14 301.89, 857.22 30.99 M452.43 496.65 C537.68 397.86, 624 298.56, 857.22 30.99 M463.06 496.61 C566.12 380.3, 668.12 263.14, 857.36 43.03 M463.06 496.61 C605.03 332.05, 747.97 168.01, 857.36 43.03 M473.69 496.58 C570.39 388.23, 665.54 277.78, 857.49 55.07 M473.69 496.58 C589.14 363.65, 705.55 229.18, 857.49 55.07 M484.32 496.54 C582.71 381.94, 680.26 269.22, 857.62 67.11 M484.32 496.54 C631.34 329.11, 777.89 160.45, 857.62 67.11 M494.96 496.51 C584.4 395.42, 671.12 294.19, 857.1 79.91 M494.96 496.51 C614.11 359.81, 734.07 221.9, 857.1 79.91 M505.59 496.47 C592.76 394.18, 681.74 292.04, 857.23 91.95 M505.59 496.47 C620.68 363.13, 735.45 231.65, 857.23 91.95 M516.22 496.44 C614.08 381.92, 714.19 268.7, 857.37 103.99 M516.22 496.44 C639.11 354.42, 763.57 211.37, 857.37 103.99 M526.85 496.4 C642.02 362.32, 759.28 227.97, 857.5 116.03 M526.85 496.4 C649.58 355.91, 771.39 215.59, 857.5 116.03 M537.48 496.37 C611.87 414.11, 683.76 330.46, 857.63 128.07 M537.48 496.37 C622.8 396.92, 709.29 296.95, 857.63 128.07 M548.11 496.34 C661.9 362.11, 777.24 230.18, 857.11 140.87 M548.11 496.34 C663.28 365.31, 777.35 234.06, 857.11 140.87 M558.74 496.3 C652.94 391.59, 746.78 284.62, 857.24 152.91 M558.74 496.3 C620.36 424.95, 681.38 354.39, 857.24 152.91 M569.37 496.27 C656.73 394.48, 742.59 294.99, 857.38 164.95 M569.37 496.27 C659.83 388.52, 752.07 282.41, 857.38 164.95 M580 496.23 C674.51 386.83, 767.71 280.02, 857.51 176.99 M580 496.23 C670.54 392, 761.39 288.34, 857.51 176.99 M590.63 496.2 C650 429.1, 704.88 364.54, 857.64 189.03 M590.63 496.2 C659.78 416.77, 729.5 336.21, 857.64 189.03 M600.6 496.92 C684.24 400.58, 765.84 304.06, 857.12 201.83 M600.6 496.92 C671.44 415.16, 743.58 333.85, 857.12 201.83 M611.23 496.88 C697.94 400, 785.52 299.03, 857.25 213.87 M611.23 496.88 C706.34 388.68, 800.51 280.39, 857.25 213.87 M621.86 496.85 C675.41 436.02, 728.61 374.58, 857.39 225.91 M621.86 496.85 C694.3 413.26, 767.04 328.72, 857.39 225.91 M632.49 496.81 C686.04 433.54, 739.09 372.04, 857.52 237.95 M632.49 496.81 C699.94 419.4, 768.46 339.93, 857.52 237.95 M643.12 496.78 C690.93 444.73, 735.93 390.42, 857.65 249.99 M643.12 496.78 C721.23 406.18, 798.93 317.67, 857.65 249.99 M653.75 496.75 C736.85 406.03, 814.98 312.69, 857.13 262.79 M653.75 496.75 C695.67 448.08, 738.65 397.51, 857.13 262.79 M664.38 496.71 C705.82 451.05, 746.73 403.92, 857.26 274.83 M664.38 496.71 C736.28 415.61, 807.59 333.48, 857.26 274.83 M675.01 496.68 C747.14 413.36, 822.5 330.33, 857.39 286.87 M675.01 496.68 C734.45 429, 792.66 361.78, 857.39 286.87 M685.64 496.64 C746.63 427.87, 804.7 359.26, 857.53 298.91 M685.64 496.64 C747.73 426.36, 809.55 355.31, 857.53 298.91 M696.27 496.61 C731.2 456.43, 767.72 416.36, 857.66 310.95 M696.27 496.61 C760.55 423.04, 824.65 349.67, 857.66 310.95 M706.9 496.57 C753.39 444.35, 797.68 393.28, 857.14 323.74 M706.9 496.57 C760.83 432.87, 816.01 369.21, 857.14 323.74 M717.53 496.54 C759.98 450.35, 803.6 398.68, 857.27 335.79 M717.53 496.54 C752.26 455.4, 787.69 414.92, 857.27 335.79 M728.16 496.5 C775.08 445.3, 819.12 392.52, 857.4 347.83 M728.16 496.5 C765.89 449.77, 805.7 404.35, 857.4 347.83 M738.79 496.47 C772.68 460.72, 806.77 422.52, 857.54 359.87 M738.79 496.47 C768.82 462.36, 797.53 430.21, 857.54 359.87 M749.42 496.44 C786.44 452.81, 825 406.08, 857.67 371.91 M749.42 496.44 C783 459.22, 814.29 420.58, 857.67 371.91 M760.05 496.4 C784.51 465.98, 809.87 440.13, 857.15 384.7 M760.05 496.4 C796.62 453.43, 831.9 410.62, 857.15 384.7 M770.68 496.37 C799.39 462.47, 833.97 426.26, 857.28 396.74 M770.68 496.37 C800.9 460.82, 831.66 426.34, 857.28 396.74 M781.31 496.33 C805.73 467.86, 830.09 441.79, 857.41 408.79 M781.31 496.33 C811.51 462.08, 841.81 428.27, 857.41 408.79 M791.94 496.3 C812.37 470.48, 837.45 445.08, 857.55 420.83 M791.94 496.3 C809.75 475.59, 827.79 454.84, 857.55 420.83 M802.57 496.26 C814.39 480.93, 825.86 469.15, 857.68 432.87 M802.57 496.26 C818.55 477.88, 834.22 459.48, 857.68 432.87 M813.2 496.23 C829.25 478.39, 840.71 463.23, 857.16 445.66 M813.2 496.23 C828.35 476.54, 845.22 457.81, 857.16 445.66 M823.83 496.19 C832.23 485.54, 845.77 473.32, 857.29 457.7 M823.83 496.19 C831.56 488.28, 838.93 479.51, 857.29 457.7 M835.77 494.65 C839.93 489.7, 847.41 479.42, 857.42 469.74 M835.77 494.65 C843.38 486.44, 851.7 477.3, 857.42 469.74" stroke="#ffd8a8" stroke-width="1" fill="none"></path><path d="M32 0 C281.65 0.34, 530.96 0.12, 825.02 0 M825.02 0 C846.4 1.59, 855.9 8.75, 857.02 32 M857.02 32 C857.24 122.99, 857.2 212.63, 857.02 464.14 M857.02 464.14 C858.93 487.42, 847.26 497.64, 825.02 496.14 M825.02 496.14 C666.5 498.62, 507.33 497.95, 32 496.14 M32 496.14 C8.95 494.3, -1.16 485.64, 0 464.14 M0 464.14 C1.56 329.86, 0.67 193.78, 0 32 M0 32 C-1.77 9.04, 8.78 0.85, 32 0" stroke="#1e1e1e" stroke-width="2.5" fill="none" stroke-dasharray="1.5 8"></path></g><g transform="translate(1627.009890022568 151.58240903065553) rotate(0 105.46875 21.59999999999991)"><text x="105.46875" y="34.762499999999996" font-family="Cascadia, Segoe UI Emoji" font-size="36px" fill="#1e1e1e" text-anchor="middle" style="white-space: pre;" direction="ltr" dominant-baseline="alphabetic">K8 cluster</text></g><g stroke-linecap="round" transform="translate(1836.2761047279319 221.56537944276897) rotate(0 77.11058490983942 72.21066565909973)"><path d="M16.79 26.52 C16.79 26.52, 16.79 26.52, 16.79 26.52 M16.79 26.52 C16.79 26.52, 16.79 26.52, 16.79 26.52 M2.49 55.16 C11.39 46.2, 22.13 33.14, 45.13 6.11 M2.49 55.16 C14.42 42.51, 26.31 28.59, 45.13 6.11 M2.62 67.2 C15.73 51.2, 31.62 32.7, 57.07 4.56 M2.62 67.2 C20.36 46.67, 36.83 26.52, 57.07 4.56 M2.1 80 C26.05 50.58, 53.58 22.66, 69.67 2.26 M2.1 80 C20.85 57.96, 42.16 35.13, 69.67 2.26 M3.54 90.53 C25.37 67.43, 45.06 40.69, 80.96 1.47 M3.54 90.53 C20.32 71.68, 37.45 51.03, 80.96 1.47 M7.61 98.04 C31.93 68.78, 52.79 45.32, 90.28 2.95 M7.61 98.04 C31.52 70.85, 55.97 43.78, 90.28 2.95 M11.03 106.31 C45.38 70.38, 77.69 34.7, 99.59 4.42 M11.03 106.31 C32.83 82.11, 54.33 57.43, 99.59 4.42 M15.09 113.82 C40.01 88.19, 61.72 61.79, 108.26 6.65 M15.09 113.82 C38.39 85.14, 60.57 60.09, 108.26 6.65 M20.48 119.83 C58.67 77.8, 95.01 34.78, 115.61 10.39 M20.48 119.83 C48.02 89.27, 75.77 57.87, 115.61 10.39 M27.17 124.32 C63.2 82.34, 100.45 39.97, 121.64 15.64 M27.17 124.32 C50.95 98.17, 71.56 71.03, 121.64 15.64 M33.21 129.57 C52.28 105.55, 73.99 80.01, 127.68 20.89 M33.21 129.57 C57.19 99.58, 82.21 71.37, 127.68 20.89 M39.9 134.06 C66.89 102.3, 96.29 69.61, 134.37 25.38 M39.9 134.06 C67.4 101.68, 96.68 70.1, 134.37 25.38 M47.25 137.8 C79.32 102.41, 110.93 64.67, 139.76 31.39 M47.25 137.8 C66.87 114.16, 87.86 90.84, 139.76 31.39 M55.91 140.03 C87.86 104.78, 119.61 67.67, 143.83 38.9 M55.91 140.03 C88.49 104.63, 117.93 66.79, 143.83 38.9 M64.58 142.26 C95.65 103.83, 129.51 68.6, 147.24 47.17 M64.58 142.26 C82.45 119.09, 102.77 97.19, 147.24 47.17 M73.24 144.49 C97.64 119.14, 118.4 90.36, 151.31 54.68 M73.24 144.49 C97.65 117.05, 121.38 87.94, 151.31 54.68 M84.52 143.7 C100.69 126.22, 112.79 109.27, 153.41 64.46 M84.52 143.7 C105.96 118.69, 129.18 93.02, 153.41 64.46 M97.78 140.65 C119.82 118.34, 139.86 91.33, 152.23 78.01 M97.78 140.65 C118.22 117.3, 137.19 95.71, 152.23 78.01 M113 135.33 C125.59 124.43, 134.11 109.87, 150.4 92.31 M113 135.33 C124.24 122.16, 135.82 108.42, 150.4 92.31" stroke="#ffd8a8" stroke-width="1" fill="none"></path><path d="M77.36 0.94 C87.84 -0.1, 100.99 2.17, 111.05 6.75 C121.11 11.33, 130.76 19.92, 137.74 28.41 C144.73 36.9, 150.67 47.68, 152.94 57.69 C155.21 67.7, 154.04 78.25, 151.37 88.47 C148.71 98.68, 143.99 110.87, 136.96 118.98 C129.93 127.1, 119.36 132.85, 109.2 137.17 C99.04 141.48, 87.04 144.94, 76 144.86 C64.96 144.79, 53.04 141.61, 42.96 136.71 C32.88 131.82, 22.35 123.62, 15.53 115.49 C8.72 107.36, 4.29 98.01, 2.06 87.91 C-0.16 77.82, -0.25 65.14, 2.19 54.93 C4.62 44.72, 9.56 34.78, 16.66 26.66 C23.76 18.55, 34.09 10.54, 44.79 6.25 C55.5 1.97, 74.2 1.65, 80.87 0.94 C87.55 0.23, 84.88 0.81, 84.86 1.99" stroke="#1e1e1e" stroke-width="2.5" fill="none" stroke-dasharray="1.5 8"></path></g><g transform="translate(1881.7206471467628 272.11539374032463) rotate(0 31.640625 21.59999999999991)"><text x="31.640625" y="34.762499999999996" font-family="Cascadia, Segoe UI Emoji" font-size="36px" fill="#1e1e1e" text-anchor="middle" style="white-space: pre;" direction="ltr" dominant-baseline="alphabetic">POD</text></g><g stroke-linecap="round" transform="translate(1842.7470290167953 412.15203244397026) rotate(0 77.11058490983942 72.21066565909973)"><path d="M26.86 18.05 C26.86 18.05, 26.86 18.05, 26.86 18.05 M26.86 18.05 C26.86 18.05, 26.86 18.05, 26.86 18.05 M4.69 55.75 C17.73 39.6, 32.25 22.02, 46.02 8.21 M4.69 55.75 C19.9 38.73, 35.09 21.31, 46.02 8.21 M2.2 70.81 C22.95 45.88, 47.6 20.01, 61.9 2.13 M2.2 70.81 C22.11 47.48, 41.6 24.47, 61.9 2.13 M2.99 82.1 C22.81 60.69, 43.33 38.91, 73.19 1.35 M2.99 82.1 C31.96 50.85, 58.84 18.34, 73.19 1.35 M5.09 91.88 C22.87 70.3, 39.88 50.19, 83.82 1.31 M5.09 91.88 C20.18 73.24, 36.94 54.98, 83.82 1.31 M7.19 101.65 C38.13 67.16, 68.37 31.23, 93.79 2.03 M7.19 101.65 C39.56 65.02, 70.68 29.17, 93.79 2.03 M11.26 109.17 C36.37 79.77, 60.58 51.07, 101.8 5.02 M11.26 109.17 C46.32 70.31, 80.35 31.77, 101.8 5.02 M17.3 114.41 C41.02 88, 63.12 60.26, 109.15 8.75 M17.3 114.41 C47.45 78.72, 77.29 45.27, 109.15 8.75 M22.68 120.42 C45.26 92.79, 71.3 63.58, 117.15 11.74 M22.68 120.42 C51.56 88.39, 79.19 55.37, 117.15 11.74 M28.06 126.42 C56 91.79, 86.9 58.7, 124.5 15.48 M28.06 126.42 C49.15 102.28, 69.93 78.01, 124.5 15.48 M34.76 130.91 C69.22 93.48, 101.54 54.69, 129.88 21.48 M34.76 130.91 C58.63 103.63, 83.03 75.62, 129.88 21.48 M42.11 134.65 C65.99 109.59, 88.19 78.52, 135.27 27.48 M42.11 134.65 C73.61 98.37, 103.34 62.42, 135.27 27.48 M49.46 138.39 C75.53 110.88, 97.64 81.63, 141.3 32.73 M49.46 138.39 C74.75 111.16, 97.18 83.68, 141.3 32.73 M57.46 141.38 C86.52 107.73, 113.42 75.57, 146.03 39.49 M57.46 141.38 C82.24 113.91, 105.4 84.9, 146.03 39.49 M65.47 144.36 C97.72 105.85, 128.93 71.68, 148.79 48.51 M65.47 144.36 C95.69 109.13, 126.08 75.02, 148.79 48.51 M76.75 143.57 C102.7 114.75, 129.96 81.62, 150.89 58.29 M76.75 143.57 C92.26 125.38, 107.15 108.2, 150.89 58.29 M88.04 142.78 C101.92 126.02, 115.41 112.16, 152.99 68.07 M88.04 142.78 C108.16 119.29, 130.8 94.62, 152.99 68.07 M100.64 140.48 C115.16 125.47, 126.18 111.94, 151.81 81.62 M100.64 140.48 C120.39 117.85, 138.83 95.99, 151.81 81.62 M119.8 130.64 C129.46 119.94, 138.51 108.79, 149.98 95.92 M119.8 130.64 C130.14 117.37, 141.99 105.84, 149.98 95.92" stroke="#ffd8a8" stroke-width="1" fill="none"></path><path d="M91.11 0.66 C101.75 1.27, 112.9 7.33, 122.02 13.53 C131.15 19.73, 140.63 28.47, 145.86 37.85 C151.09 47.22, 152.96 59.36, 153.43 69.79 C153.89 80.22, 152.83 91.06, 148.65 100.44 C144.47 109.81, 136.73 119.22, 128.36 126.05 C119.98 132.87, 109.41 138.42, 98.4 141.4 C87.4 144.38, 73.3 145.77, 62.31 143.93 C51.32 142.09, 41.49 136.7, 32.48 130.36 C23.47 124.03, 13.49 115.01, 8.25 105.93 C3.01 96.85, 1.27 86.26, 1.06 75.9 C0.85 65.54, 2.7 53.41, 7 43.77 C11.29 34.14, 18.38 25, 26.81 18.11 C35.25 11.22, 44.48 4.81, 57.61 2.43 C70.74 0.05, 95.76 2.31, 105.61 3.83 C115.46 5.35, 117.44 10.12, 116.73 11.55" stroke="#1e1e1e" stroke-width="2.5" fill="none" stroke-dasharray="1.5 8"></path></g><g transform="translate(1888.1915714356262 462.7020467415259) rotate(0 31.640625 21.59999999999991)"><text x="31.640625" y="34.762499999999996" font-family="Cascadia, Segoe UI Emoji" font-size="36px" fill="#1e1e1e" text-anchor="middle" style="white-space: pre;" direction="ltr" dominant-baseline="alphabetic">POD</text></g><g transform="translate(847.5720269695378 53.94772936230447) rotate(0 158.203125 21.59999999999991)"><text x="158.203125" y="34.762499999999996" font-family="Cascadia, Segoe UI Emoji" font-size="36px" fill="#1e1e1e" text-anchor="middle" style="white-space: pre;" direction="ltr" dominant-baseline="alphabetic">Virtual Machine</text></g><g stroke-linecap="round"><g transform="translate(195.54066934925436 226.65725429302302) rotate(0 58.5212005358984 36.390740497247634)"><path d="M0.27 0.51 C19.73 12.45, 97.28 59.8, 116.75 72.01 M-1.05 -0.27 C18.23 11.78, 96.08 61.11, 115.65 73.15" stroke="#1e1e1e" stroke-width="2" fill="none"></path></g><g transform="translate(195.54066934925436 226.65725429302302) rotate(0 58.5212005358984 36.390740497247634)"><path d="M91.2 67.94 C99.34 68.95, 104.49 71.1, 115.65 73.15 M91.2 67.94 C100.82 69.98, 110.63 72.67, 115.65 73.15" stroke="#1e1e1e" stroke-width="2" fill="none"></path></g><g transform="translate(195.54066934925436 226.65725429302302) rotate(0 58.5212005358984 36.390740497247634)"><path d="M100.27 53.44 C105.75 58.79, 108.2 65.25, 115.65 73.15 M100.27 53.44 C106.47 61.12, 112.81 69.35, 115.65 73.15" stroke="#1e1e1e" stroke-width="2" fill="none"></path></g></g><mask></mask><g stroke-linecap="round"><g transform="translate(184.892185039399 507.77117831742953) rotate(0 62.29969496842773 -39.68429446784785)"><path d="M-0.92 -0.94 C19.78 -14.38, 102.68 -66.73, 123.51 -79.71 M0.8 1.18 C21.91 -12.16, 105.28 -64.68, 125.65 -78.36" stroke="#1e1e1e" stroke-width="2" fill="none"></path></g><g transform="translate(184.892185039399 507.77117831742953) rotate(0 62.29969496842773 -39.68429446784785)"><path d="M110.58 -58.41 C112.52 -64.97, 117.18 -68.89, 125.65 -78.36 M110.58 -58.41 C114.79 -66.09, 120.99 -71.56, 125.65 -78.36" stroke="#1e1e1e" stroke-width="2" fill="none"></path></g><g transform="translate(184.892185039399 507.77117831742953) rotate(0 62.29969496842773 -39.68429446784785)"><path d="M101.28 -72.77 C105.6 -75.76, 112.52 -76.19, 125.65 -78.36 M101.28 -72.77 C108.76 -75.46, 118.15 -76, 125.65 -78.36" stroke="#1e1e1e" stroke-width="2" fill="none"></path></g></g><mask></mask><g stroke-linecap="round"><g transform="translate(539.0502661418454 359.8643374291164) rotate(0 169.1330890239924 1.2426599336929485)"><path d="M0.14 -0.54 C56.4 0.11, 282.18 2.61, 338.63 3.06 M-1.24 1.79 C54.79 2.16, 281.27 0.99, 337.88 1.24" stroke="#1e1e1e" stroke-width="2" fill="none"></path></g><g transform="translate(539.0502661418454 359.8643374291164) rotate(0 169.1330890239924 1.2426599336929485)"><path d="M314.39 9.81 C322.79 7.02, 333.89 4.01, 337.88 1.24 M314.39 9.81 C321.21 8.33, 326.39 4.34, 337.88 1.24" stroke="#1e1e1e" stroke-width="2" fill="none"></path></g><g transform="translate(539.0502661418454 359.8643374291164) rotate(0 169.1330890239924 1.2426599336929485)"><path d="M314.38 -7.29 C322.66 -3.35, 333.77 0.36, 337.88 1.24 M314.38 -7.29 C321.35 -4.13, 326.54 -3.47, 337.88 1.24" stroke="#1e1e1e" stroke-width="2" fill="none"></path></g></g><mask></mask><g stroke-linecap="round"><g transform="translate(1170.4629534258474 359.11672088364276) rotate(0 97.63467966835105 2.0761513526331328)"><path d="M1.17 1.19 C33.84 1.72, 163.35 2.56, 195.77 3.07 M0.32 0.77 C32.9 1.42, 162.61 3.24, 195.08 4.04" stroke="#1e1e1e" stroke-width="2" fill="none"></path></g><g transform="translate(1170.4629534258474 359.11672088364276) rotate(0 97.63467966835105 2.0761513526331328)"><path d="M171.44 12.15 C180.03 10.49, 182.85 8.09, 195.08 4.04 M171.44 12.15 C177.74 9.67, 184.95 6.8, 195.08 4.04" stroke="#1e1e1e" stroke-width="2" fill="none"></path></g><g transform="translate(1170.4629534258474 359.11672088364276) rotate(0 97.63467966835105 2.0761513526331328)"><path d="M171.76 -4.94 C180.25 -1.83, 182.98 0.55, 195.08 4.04 M171.76 -4.94 C178.07 -2.17, 185.18 0.23, 195.08 4.04" stroke="#1e1e1e" stroke-width="2" fill="none"></path></g></g><mask></mask><g stroke-linecap="round"><g transform="translate(1667.5875444607063 357.94478143398146) rotate(0 82.55606218024946 -20.96862351527966)"><path d="M0.9 -1.2 C28.59 -8.19, 137.99 -34.34, 165.41 -41.15 M-0.08 0.79 C27.54 -6.61, 137.14 -35.93, 164.61 -42.86" stroke="#1e1e1e" stroke-width="2" fill="none"></path></g><g transform="translate(1667.5875444607063 357.94478143398146) rotate(0 82.55606218024946 -20.96862351527966)"><path d="M144.04 -28.65 C146.88 -31.72, 155.1 -35.16, 164.61 -42.86 M144.04 -28.65 C150.88 -32.55, 155.47 -36.82, 164.61 -42.86" stroke="#1e1e1e" stroke-width="2" fill="none"></path></g><g transform="translate(1667.5875444607063 357.94478143398146) rotate(0 82.55606218024946 -20.96862351527966)"><path d="M139.72 -45.2 C143.7 -44.34, 152.96 -43.82, 164.61 -42.86 M139.72 -45.2 C147.93 -44.3, 153.78 -43.77, 164.61 -42.86" stroke="#1e1e1e" stroke-width="2" fill="none"></path></g></g><mask></mask><g stroke-linecap="round"><g transform="translate(1665.748811875893 382.6262303609042) rotate(0 84.38974330191786 41.068395369603195)"><path d="M-0.3 -0.65 C27.61 13.08, 140.2 69.16, 168.21 83.09 M1.75 1.62 C29.38 14.98, 138.9 68.24, 166.96 81.46" stroke="#1e1e1e" stroke-width="2" fill="none"></path></g><g transform="translate(1665.748811875893 382.6262303609042) rotate(0 84.38974330191786 41.068395369603195)"><path d="M142.08 79.01 C150.03 79.01, 161.73 79.13, 166.96 81.46 M142.08 79.01 C151.61 79.51, 160.76 80.69, 166.96 81.46" stroke="#1e1e1e" stroke-width="2" fill="none"></path></g><g transform="translate(1665.748811875893 382.6262303609042) rotate(0 84.38974330191786 41.068395369603195)"><path d="M149.48 63.59 C154.83 69.17, 163.84 74.88, 166.96 81.46 M149.48 63.59 C156.39 69.74, 162.85 76.53, 166.96 81.46" stroke="#1e1e1e" stroke-width="2" fill="none"></path></g></g><mask></mask></svg>